{"glyphs":{"0":{"ha":839,"x_min":0,"x_max":0,"o":"m 588 1065 b 874 524 879 1065 910 756 b 417 -18 836 292 708 -18 b 132 524 125 -18 94 292 b 588 1065 168 756 296 1065 m 550 824 b 411 524 464 824 429 642 b 456 224 392 406 369 224 b 594 524 542 224 575 406 b 550 824 613 642 636 824 "},"1":{"ha":839,"x_min":0,"x_max":0,"o":"m 317 0 l 444 806 l 332 806 l 369 1047 l 765 1047 l 600 0 "},"2":{"ha":839,"x_min":0,"x_max":0,"o":"m 213 703 b 624 1065 246 913 411 1065 b 900 722 822 1065 931 915 b 550 235 869 525 706 360 l 551 232 b 696 242 600 235 649 242 l 813 242 l 774 0 l 51 0 l 386 368 b 626 739 481 472 606 604 b 576 832 633 779 625 832 b 488 704 515 832 494 747 l 482 665 l 208 665 "},"3":{"ha":839,"x_min":0,"x_max":0,"o":"m 392 290 b 447 210 388 233 414 210 b 540 304 503 210 532 254 b 433 419 554 390 496 419 l 394 419 l 429 640 l 464 640 b 596 747 539 640 583 665 b 553 838 601 782 599 838 b 482 757 494 838 483 767 l 482 750 l 207 749 b 599 1065 250 940 406 1065 b 874 758 774 1065 903 939 b 714 542 860 668 801 585 b 817 294 801 492 833 401 b 407 -18 785 93 593 -18 b 117 308 213 -18 78 107 l 393 308 "},"4":{"ha":839,"x_min":0,"x_max":0,"o":"m 531 617 b 564 750 538 661 551 706 l 561 753 l 343 438 l 503 438 m 76 213 l 111 433 l 524 1047 l 871 1047 l 775 438 l 865 438 l 829 213 l 739 213 l 706 0 l 424 0 l 457 213 "},"5":{"ha":839,"x_min":0,"x_max":0,"o":"m 157 311 b 368 236 215 272 292 236 b 535 356 440 236 521 275 b 389 474 549 446 465 474 b 196 436 322 474 261 461 l 372 1047 l 894 1047 l 857 806 l 558 806 l 517 683 b 557 686 531 685 543 686 b 821 365 733 686 849 540 b 364 -18 785 142 585 -18 b 85 64 265 -18 161 13 "},"6":{"ha":839,"x_min":0,"x_max":0,"o":"m 522 669 l 525 667 b 626 696 558 686 588 696 b 831 364 794 696 854 511 b 406 -18 796 143 631 -18 b 121 363 183 -18 89 154 b 383 881 147 526 285 735 l 497 1047 l 801 1047 m 456 207 b 560 358 529 207 551 306 b 500 492 568 410 567 492 b 399 354 432 492 407 406 b 456 207 390 301 383 207 "},"7":{"ha":839,"x_min":0,"x_max":0,"o":"m 63 0 l 578 806 l 222 806 l 260 1047 l 1004 1047 l 367 0 "},"8":{"ha":839,"x_min":0,"x_max":0,"o":"m 451 206 b 543 329 507 206 533 269 b 489 435 549 371 542 435 b 401 329 436 435 407 371 b 451 206 392 269 396 206 m 553 842 b 478 754 504 842 483 790 b 524 658 472 715 474 658 b 600 754 574 658 594 715 b 553 842 606 790 601 842 m 417 -18 b 108 293 233 -18 79 103 b 325 544 128 415 206 506 l 325 547 b 204 768 225 578 186 658 b 588 1065 232 951 407 1065 b 879 768 768 1065 907 951 b 686 547 861 658 797 578 l 686 544 b 822 293 794 506 842 415 b 417 -18 793 103 600 -18 "},"9":{"ha":839,"x_min":0,"x_max":0,"o":"m 482 378 l 479 381 b 378 351 446 363 417 351 b 172 683 208 351 149 536 b 599 1065 207 904 372 1065 b 882 685 821 1065 915 894 b 621 168 856 521 719 313 l 506 0 l 203 0 m 549 842 b 446 689 476 842 454 742 b 504 556 438 639 438 556 b 603 693 571 556 594 642 b 549 842 611 747 621 842 "}," ":{"ha":419,"x_min":0,"x_max":0,"o":""},"!":{"ha":422,"x_min":0,"x_max":0,"o":"m 206 -15 b 74 146 117 -15 58 57 b 251 303 86 231 169 303 b 390 142 342 303 406 235 b 206 -15 376 54 293 -15 m 136 375 l 251 1107 l 528 1107 l 413 375 "},"\"":{"ha":764,"x_min":0,"x_max":0,"o":"m 547 544 l 585 1047 l 861 1047 l 740 544 m 196 544 l 233 1047 l 510 1047 l 389 544 "},"#":{"ha":839,"x_min":0,"x_max":0,"o":"m 767 308 l 626 308 l 536 0 l 415 0 l 504 308 l 386 308 l 296 0 l 171 0 l 261 308 l 133 308 l 158 467 l 308 467 l 349 599 l 218 599 l 243 757 l 393 757 l 478 1042 l 599 1042 l 515 757 l 635 757 l 718 1042 l 843 1042 l 758 757 l 874 757 l 849 599 l 711 599 l 674 467 l 792 467 m 469 599 l 432 467 l 551 467 l 589 599 "},"$":{"ha":839,"x_min":0,"x_max":0,"o":"m 564 1200 l 690 1200 l 668 1065 b 828 1010 728 1060 781 1042 l 778 696 b 624 810 746 750 697 810 b 544 747 589 810 551 788 b 621 635 538 697 593 660 b 746 338 715 550 769 482 b 493 7 724 193 633 63 l 468 -147 l 340 -147 l 361 -18 b 150 28 286 -17 214 -4 l 203 356 b 365 238 231 294 293 238 b 458 311 408 238 450 258 b 394 418 467 360 425 392 b 260 717 304 501 238 575 b 542 1057 285 874 386 1006 "},"%":{"ha":1104,"x_min":0,"x_max":0,"o":"m 443 1065 b 631 808 593 1065 653 946 b 363 551 610 671 513 551 b 175 808 213 551 154 671 b 443 1065 197 946 293 1065 m 419 911 b 360 808 378 911 364 836 b 386 706 356 782 344 706 b 446 808 428 706 442 782 b 419 911 450 836 461 911 m 908 496 b 1094 239 1058 496 1117 376 b 826 -18 1074 101 976 -18 b 639 239 676 -18 618 101 b 908 496 661 376 758 496 m 883 342 b 824 239 842 342 828 267 b 851 136 819 213 810 136 b 910 239 893 136 906 213 b 883 342 914 267 925 342 m 132 42 l 1039 1090 l 1139 1011 l 229 -36 "},"&":{"ha":1017,"x_min":0,"x_max":0,"o":"m 621 875 b 528 797 563 875 533 829 b 575 660 522 760 529 722 b 688 796 643 715 681 753 b 621 875 693 831 672 875 m 651 57 b 397 -18 568 10 481 -18 b 119 306 219 -18 90 125 b 344 583 139 429 229 525 b 294 792 306 642 283 715 b 633 1065 321 953 481 1065 b 904 783 810 1065 931 950 b 674 511 886 667 786 569 l 756 376 l 881 496 l 994 304 l 860 196 l 982 0 l 683 0 m 451 403 b 364 310 404 379 371 347 b 453 204 351 231 397 204 b 539 243 478 204 507 222 "},"’":{"ha":511,"x_min":0,"x_max":0,"o":"m 361 544 l 139 544 l 346 1047 l 624 1047 "},"(":{"ha":444,"x_min":0,"x_max":0,"o":"m 122 442 b 389 1065 157 661 251 876 l 561 979 b 344 440 450 818 372 615 b 390 -96 318 268 331 64 l 192 -181 b 122 442 114 8 88 222 "},")":{"ha":444,"x_min":0,"x_max":0,"o":"m 392 1065 b 461 442 471 876 496 661 b 194 -181 426 222 333 8 l 24 -96 b 239 440 133 64 213 268 b 194 979 267 615 253 818 l 392 1065 "},"*":{"ha":586,"x_min":0,"x_max":0,"o":"m 394 703 l 292 600 l 206 678 l 308 785 l 185 835 l 250 953 l 367 906 l 389 1047 l 517 1047 l 493 896 l 646 944 l 664 822 l 514 775 l 574 661 l 457 590 "},"+":{"ha":694,"x_min":0,"x_max":0,"o":"m 378 692 l 538 692 l 497 435 l 729 435 l 703 275 l 471 275 l 429 8 l 269 8 l 311 275 l 79 275 l 106 435 l 338 435 "},",":{"ha":419,"x_min":0,"x_max":0,"o":"m 178 -222 l -44 -222 l 163 282 l 440 282 "},"-":{"ha":446,"x_min":0,"x_max":0,"o":"m 106 332 l 142 557 l 482 557 l 446 332 "},".":{"ha":419,"x_min":0,"x_max":0,"o":"m 207 -15 b 75 146 118 -15 60 57 b 253 303 88 231 171 303 b 392 142 343 303 407 235 b 207 -15 378 54 294 -15 "},"/":{"ha":918,"x_min":0,"x_max":0,"o":"m 82 -167 l 810 1107 l 985 1107 l 257 -167 "},":":{"ha":419,"x_min":0,"x_max":0,"o":"m 274 403 b 140 564 185 403 126 475 b 318 721 154 649 236 721 b 458 560 408 721 472 653 b 274 403 444 472 361 403 m 207 -15 b 75 146 118 -15 60 57 b 253 303 88 231 171 303 b 392 142 343 303 407 235 b 207 -15 378 54 294 -15 "},";":{"ha":419,"x_min":0,"x_max":0,"o":"m 178 -222 l -44 -222 l 163 282 l 440 282 m 331 403 b 196 565 240 403 182 476 b 375 721 210 649 292 721 b 514 561 465 721 528 653 b 331 403 500 472 418 403 "},"<":{"ha":694,"x_min":0,"x_max":0,"o":"m 679 131 l 654 -24 l 81 289 l 103 426 l 776 742 l 751 588 l 258 356 "},"=":{"ha":694,"x_min":0,"x_max":0,"o":"m 725 411 l 101 411 l 126 571 l 750 571 m 682 140 l 58 140 l 83 300 l 707 300 "},">":{"ha":694,"x_min":0,"x_max":0,"o":"m 550 356 l 129 588 l 154 742 l 728 426 l 706 289 l 32 -24 l 57 131 "},"?":{"ha":757,"x_min":0,"x_max":0,"o":"m 294 379 l 336 636 l 383 635 b 554 769 478 635 538 667 b 511 888 560 808 565 888 b 433 768 456 888 439 810 l 161 768 l 164 789 b 546 1121 190 986 353 1121 b 835 779 746 1121 867 979 b 582 488 814 647 731 519 l 564 379 m 371 -15 b 239 146 282 -15 224 57 b 417 303 251 231 335 303 b 556 142 507 303 571 235 b 371 -15 542 54 458 -15 "},"@":{"ha":1153,"x_min":0,"x_max":0,"o":"m 781 517 b 692 674 800 600 779 674 b 504 482 606 674 519 582 b 596 349 492 403 526 349 b 781 517 689 349 761 439 m 886 792 l 1022 792 l 882 367 b 894 336 874 344 881 336 b 1088 590 946 336 1067 453 b 751 965 1125 822 986 965 b 243 528 494 965 283 781 b 635 82 201 260 375 82 b 940 211 744 82 850 139 l 1074 211 b 608 -18 949 71 786 -18 b 135 528 299 -18 86 215 b 771 1065 183 835 464 1065 b 1203 629 1018 1065 1244 894 b 776 221 1163 379 940 221 b 731 301 742 221 713 254 l 729 304 b 544 221 660 249 601 221 b 349 468 397 221 326 322 b 696 801 376 642 517 801 b 860 718 769 801 828 778 "},"A":{"ha":840,"x_min":0,"x_max":0,"o":"m 538 0 l 538 135 l 347 135 l 303 0 l 11 0 l 428 1047 l 774 1047 l 831 0 m 540 357 l 547 600 b 558 797 550 665 554 732 l 556 797 b 497 600 536 732 519 665 l 421 357 "},"B":{"ha":847,"x_min":0,"x_max":0,"o":"m 249 1047 l 582 1047 b 896 749 749 1047 932 975 b 667 539 878 631 786 539 l 667 536 b 842 299 804 525 864 439 b 464 0 821 169 717 0 l 83 0 m 426 226 b 560 328 489 226 549 257 b 457 428 571 399 522 428 l 435 428 l 403 226 m 485 640 b 611 732 543 640 601 664 b 525 821 622 794 583 821 l 497 821 l 468 640 "},"C":{"ha":742,"x_min":0,"x_max":0,"o":"m 774 740 b 651 801 740 779 710 801 b 425 524 504 801 443 639 b 558 246 406 401 417 246 b 719 313 622 246 667 271 l 656 19 b 479 -18 594 -6 542 -18 b 135 517 247 -18 78 158 b 681 1065 208 986 543 1065 b 822 1040 731 1065 779 1058 "},"D":{"ha":860,"x_min":0,"x_max":0,"o":"m 249 1047 l 476 1047 b 890 528 799 1047 940 844 b 331 0 814 44 503 0 l 83 0 m 407 253 b 600 514 536 254 583 415 b 492 786 618 628 621 786 "},"E":{"ha":693,"x_min":0,"x_max":0,"o":"m 249 1047 l 775 1047 l 736 800 l 493 800 l 471 654 l 689 654 l 649 407 l 431 407 l 406 247 l 649 247 l 610 0 l 83 0 "},"F":{"ha":668,"x_min":0,"x_max":0,"o":"m 83 0 l 249 1047 l 749 1047 l 710 800 l 493 800 l 469 649 l 672 649 l 633 401 l 431 401 l 367 0 "},"G":{"ha":881,"x_min":0,"x_max":0,"o":"m 933 606 l 928 561 b 458 -18 888 303 786 -18 b 135 518 150 -18 93 253 b 626 1065 176 778 319 1065 b 943 807 796 1065 906 958 l 653 706 b 590 813 657 747 640 813 b 419 493 460 813 432 572 b 488 235 413 418 378 235 b 608 385 563 235 600 324 l 504 385 l 539 606 "},"H":{"ha":869,"x_min":0,"x_max":0,"o":"m 501 0 l 568 425 l 433 425 l 367 0 l 83 0 l 249 1047 l 532 1047 l 474 672 l 608 672 l 667 1047 l 950 1047 l 785 0 "},"I":{"ha":450,"x_min":0,"x_max":0,"o":"m 83 0 l 249 1047 l 532 1047 l 367 0 "},"J":{"ha":597,"x_min":0,"x_max":0,"o":"m 82 308 b 188 247 103 272 140 247 b 293 393 267 247 283 332 l 396 1047 l 679 1047 l 567 338 b 218 -18 544 197 493 -18 b 36 15 153 -18 93 -6 "},"K":{"ha":881,"x_min":0,"x_max":0,"o":"m 988 1047 l 682 542 l 849 0 l 544 0 l 444 481 l 443 481 l 367 0 l 83 0 l 249 1047 l 532 1047 l 463 601 l 464 601 l 689 1047 "},"L":{"ha":611,"x_min":0,"x_max":0,"o":"m 83 0 l 249 1047 l 532 1047 l 406 247 l 618 247 l 579 0 "},"M":{"ha":1146,"x_min":0,"x_max":0,"o":"m 831 0 l 908 658 l 906 658 b 833 429 881 582 860 506 l 685 0 l 454 0 l 460 658 l 457 658 b 417 426 443 581 432 504 l 325 0 l 21 0 l 308 1047 l 661 1047 l 654 490 l 657 490 b 715 685 675 556 693 619 l 840 1047 l 1189 1047 l 1125 0 "},"N":{"ha":906,"x_min":0,"x_max":0,"o":"m 249 1047 l 518 1047 l 646 417 l 649 419 b 674 781 657 540 654 660 l 715 1047 l 988 1047 l 822 0 l 550 0 l 435 604 l 432 601 b 404 307 422 503 419 406 l 356 0 l 83 0 "},"O":{"ha":904,"x_min":0,"x_max":0,"o":"m 135 524 b 619 1065 175 779 332 1065 b 935 524 907 1065 975 779 b 449 -18 894 268 736 -18 b 135 524 161 -18 94 268 m 424 524 b 490 246 413 458 383 246 b 646 524 597 246 635 458 b 578 801 656 589 685 801 b 424 524 471 801 433 589 "},"P":{"ha":811,"x_min":0,"x_max":0,"o":"m 83 0 l 249 1047 l 507 1047 b 889 692 754 1047 932 967 b 421 343 846 419 665 336 l 367 0 m 603 696 b 518 822 614 763 588 822 l 497 821 l 458 579 b 603 696 536 575 590 618 "},"Q":{"ha":904,"x_min":0,"x_max":0,"o":"m 607 -146 l 532 -6 b 490 -15 519 -10 506 -12 b 449 -18 476 -17 463 -18 b 135 524 161 -18 94 268 b 619 1065 175 779 332 1065 b 935 524 907 1065 975 779 b 754 124 908 375 854 229 l 856 -21 m 578 801 b 424 524 471 801 433 589 b 490 246 413 458 383 246 b 646 524 597 246 635 458 b 578 801 656 589 685 801 "},"R":{"ha":839,"x_min":0,"x_max":0,"o":"m 522 0 l 435 436 l 431 433 b 411 279 425 382 419 331 l 367 0 l 83 0 l 249 1047 l 522 1047 b 892 699 768 1047 935 975 b 688 436 874 583 807 481 l 829 0 m 474 563 b 610 696 549 563 600 628 b 497 822 625 788 575 826 l 456 564 "},"S":{"ha":656,"x_min":0,"x_max":0,"o":"m 113 353 b 274 236 143 294 201 236 b 368 306 313 236 361 260 b 354 364 372 331 367 349 b 314 404 344 379 331 392 b 194 538 265 447 224 488 b 167 721 168 586 154 644 b 540 1065 186 843 299 1065 b 733 1013 608 1065 679 1044 l 683 694 b 535 807 658 747 600 807 b 451 743 501 807 457 783 b 469 685 447 721 457 701 b 514 642 482 668 501 654 b 633 514 567 600 608 561 b 656 332 658 467 668 411 b 267 -18 625 138 464 -18 b 61 25 194 -18 124 -3 "},"T":{"ha":664,"x_min":0,"x_max":0,"o":"m 188 0 l 313 792 l 157 792 l 197 1047 l 799 1047 l 758 792 l 596 792 l 471 0 "},"U":{"ha":864,"x_min":0,"x_max":0,"o":"m 953 1047 l 844 363 b 429 -18 825 236 757 -18 b 133 363 101 -18 114 236 l 242 1047 l 525 1047 l 421 389 b 414 297 417 361 410 325 b 471 246 418 268 432 246 b 544 296 511 246 533 268 b 565 388 557 325 561 361 l 669 1047 "},"V":{"ha":814,"x_min":0,"x_max":0,"o":"m 240 0 l 165 1047 l 463 1047 l 461 617 b 451 364 461 532 454 449 l 454 364 b 526 617 481 449 499 532 l 672 1047 l 979 1047 l 529 0 "},"W":{"ha":1183,"x_min":0,"x_max":0,"o":"m 699 0 l 689 425 b 697 656 688 510 696 583 l 694 656 b 635 425 676 583 661 510 l 508 0 l 233 0 l 165 1047 l 444 1047 l 440 625 b 433 393 439 547 436 471 l 436 393 b 496 625 457 471 469 547 l 636 1047 l 879 1047 l 885 625 b 881 397 886 549 882 474 l 883 397 b 943 625 903 463 918 543 l 1072 1047 l 1349 1047 l 972 0 "},"X":{"ha":854,"x_min":0,"x_max":0,"o":"m 519 0 l 488 163 b 472 281 482 201 478 242 l 469 281 b 418 163 453 242 435 201 l 329 0 l 21 0 l 361 543 l 200 1047 l 515 1047 l 542 921 b 554 800 550 882 550 840 l 557 800 b 606 921 574 840 586 881 l 663 1047 l 981 1047 l 663 543 l 833 0 "},"Y":{"ha":807,"x_min":0,"x_max":0,"o":"m 269 0 l 340 444 l 176 1047 l 471 1047 l 518 724 l 521 724 l 669 1047 l 963 1047 l 624 444 l 553 0 "},"Z":{"ha":819,"x_min":0,"x_max":0,"o":"m 32 0 l 424 665 b 526 808 450 711 490 761 b 346 800 471 806 407 800 l 221 800 l 260 1047 l 953 1047 l 531 331 b 471 235 511 297 489 267 b 631 247 522 239 576 247 l 792 247 l 753 0 "},"[":{"ha":417,"x_min":0,"x_max":0,"o":"m 376 -162 l 18 -162 l 210 1047 l 568 1047 l 542 874 l 388 874 l 250 10 l 404 10 "},"\\":{"ha":347,"x_min":0,"x_max":0,"o":"m 322 -167 l -1 1107 l 174 1107 l 497 -167 "},"]":{"ha":417,"x_min":0,"x_max":0,"o":"m -12 -162 l 15 10 l 169 10 l 307 874 l 153 874 l 179 1047 l 538 1047 l 346 -162 "},"^":{"ha":694,"x_min":0,"x_max":0,"o":"m 104 524 l 431 1047 l 594 1047 l 757 524 l 604 458 l 479 846 l 235 458 "},"_":{"ha":694,"x_min":0,"x_max":0,"o":"m 678 -104 l 667 -174 l -28 -174 l -17 -104 "},"‘":{"ha":511,"x_min":0,"x_max":0,"o":"m 400 1047 l 624 1047 l 417 544 l 139 544 "},"a":{"ha":790,"x_min":0,"x_max":0,"o":"m 411 210 b 481 276 446 210 467 240 b 504 376 494 314 501 356 b 513 465 507 396 514 432 b 469 525 511 497 501 525 b 400 451 436 525 415 492 b 376 343 388 413 381 367 b 372 260 374 322 369 289 b 411 210 374 232 385 210 m 717 0 l 444 0 l 476 121 l 474 124 b 264 -15 426 46 353 -15 b 101 374 75 -15 78 231 b 390 749 124 518 203 749 b 546 618 478 749 524 690 l 550 621 l 557 733 l 833 733 "},"b":{"ha":790,"x_min":0,"x_max":0,"o":"m 436 218 b 526 371 499 218 521 331 b 479 522 535 417 547 522 b 394 372 424 522 401 410 b 436 218 389 329 372 218 m 249 1107 l 521 1107 l 461 731 l 442 631 l 444 628 b 632 749 488 701 547 749 b 806 360 831 749 829 511 b 511 -15 789 258 725 -15 b 364 99 428 -15 390 32 l 361 96 l 351 0 l 74 0 "},"c":{"ha":508,"x_min":0,"x_max":0,"o":"m 443 -10 b 368 -15 418 -11 393 -15 b 100 369 157 -15 69 174 b 506 749 132 571 294 749 b 563 746 525 749 543 747 l 525 508 b 382 375 443 504 394 453 b 464 239 372 317 394 239 l 482 239 "},"d":{"ha":790,"x_min":0,"x_max":0,"o":"m 422 218 b 511 372 482 218 500 294 b 476 522 524 444 526 522 b 381 371 419 522 393 451 b 422 218 369 296 369 218 m 460 96 l 457 99 b 272 -15 411 32 357 -15 b 99 360 81 -15 75 213 b 393 749 122 511 196 749 b 546 628 478 749 525 701 l 549 631 b 560 731 553 664 556 697 l 619 1107 l 892 1107 l 717 0 l 439 0 "},"e":{"ha":756,"x_min":0,"x_max":0,"o":"m 513 457 b 463 550 518 497 511 550 b 386 457 417 550 390 494 m 743 249 b 378 -15 686 79 542 -15 b 97 353 151 -15 64 138 b 506 749 131 563 281 749 b 735 629 618 749 693 701 b 763 310 790 533 781 425 l 363 310 b 408 197 356 267 351 197 b 476 249 439 197 467 219 "},"f":{"ha":532,"x_min":0,"x_max":0,"o":"m 121 0 l 203 515 l 124 515 l 158 733 l 238 733 l 250 818 b 536 1122 281 1011 378 1122 b 665 1103 581 1122 624 1115 l 625 851 b 574 876 611 864 594 876 b 515 768 533 876 525 836 l 510 733 l 607 733 l 572 515 l 475 515 l 393 0 "},"g":{"ha":789,"x_min":0,"x_max":0,"o":"m 419 214 b 507 369 475 214 496 299 b 469 528 519 446 526 528 b 382 374 415 528 393 450 b 419 214 371 307 367 214 m 715 -4 b 325 -343 679 -231 556 -343 b 40 -78 146 -343 31 -267 l 318 -78 b 364 -137 313 -110 331 -137 b 442 -12 414 -137 429 -90 l 457 85 l 454 85 b 281 -10 419 32 346 -10 b 99 364 94 -10 76 218 b 394 749 121 503 213 749 b 542 638 474 749 513 699 l 544 640 l 554 733 l 832 733 "},"h":{"ha":799,"x_min":0,"x_max":0,"o":"m 453 0 l 511 371 b 478 478 521 433 525 478 b 401 353 424 478 413 421 l 346 0 l 74 0 l 249 1107 l 521 1107 l 457 708 b 433 597 451 671 440 635 l 436 594 b 647 749 475 674 557 749 b 801 483 804 749 822 615 l 725 0 "},"i":{"ha":419,"x_min":0,"x_max":0,"o":"m 74 0 l 190 733 l 463 733 l 346 0 m 339 804 b 204 964 251 804 190 875 b 386 1122 218 1050 300 1122 b 522 965 474 1122 536 1054 b 339 804 508 878 428 804 "},"j":{"ha":419,"x_min":0,"x_max":0,"o":"m 22 -328 l 190 733 l 463 733 l 294 -328 m 342 804 b 206 964 253 804 192 875 b 389 1122 219 1050 301 1122 b 524 965 475 1122 538 1054 b 342 804 510 878 431 804 "},"k":{"ha":800,"x_min":0,"x_max":0,"o":"m 407 368 l 404 368 l 346 0 l 74 0 l 249 1107 l 521 1107 l 410 403 l 413 403 l 593 733 l 888 733 l 653 397 l 789 0 l 476 0 "},"l":{"ha":419,"x_min":0,"x_max":0,"o":"m 74 0 l 249 1107 l 521 1107 l 346 0 "},"m":{"ha":1169,"x_min":0,"x_max":0,"o":"m 442 614 l 444 611 b 646 749 485 688 558 749 b 814 597 744 749 797 685 l 817 597 b 1018 749 853 679 924 749 b 1172 486 1161 749 1199 647 l 1096 0 l 824 0 l 886 397 b 856 485 892 426 896 485 b 796 436 821 485 807 464 b 776 354 785 410 781 378 l 721 0 l 449 0 l 513 406 b 483 481 518 439 518 481 b 419 431 450 481 431 458 b 401 349 408 403 404 371 l 346 0 l 74 0 l 190 733 l 465 733 "},"n":{"ha":799,"x_min":0,"x_max":0,"o":"m 433 597 l 436 594 b 647 749 475 674 557 749 b 801 483 804 749 822 615 l 725 0 l 453 0 l 511 371 b 478 478 521 433 524 478 b 401 353 425 478 414 428 l 346 0 l 74 0 l 190 733 l 463 733 "},"o":{"ha":767,"x_min":0,"x_max":0,"o":"m 501 749 b 783 367 736 749 815 572 b 381 -15 750 161 615 -15 b 100 367 146 -15 67 161 b 501 749 132 572 267 749 m 469 544 b 367 367 404 544 378 442 b 414 189 354 292 349 189 b 517 367 479 189 504 292 b 469 544 528 442 535 544 "},"p":{"ha":788,"x_min":0,"x_max":0,"o":"m 432 214 b 525 379 493 214 517 326 b 483 525 533 432 538 525 b 397 374 431 525 407 436 b 432 214 386 304 379 214 m 439 632 l 442 629 b 625 749 483 700 543 749 b 804 367 811 749 828 514 b 513 -15 781 222 700 -15 b 357 100 429 -15 386 32 l 354 97 b 340 -39 350 51 347 7 l 294 -328 l 22 -328 l 190 733 l 463 733 "},"q":{"ha":788,"x_min":0,"x_max":0,"o":"m 424 214 b 510 374 475 214 499 308 b 471 525 519 440 524 525 b 382 379 419 525 393 446 b 424 214 371 306 367 214 m 558 733 l 831 733 l 663 -328 l 390 -328 l 436 -39 b 464 97 443 7 454 51 l 461 100 b 269 -15 413 32 353 -15 b 100 367 82 -15 74 222 b 399 749 124 514 213 749 b 546 629 481 749 526 700 l 549 632 "},"r":{"ha":589,"x_min":0,"x_max":0,"o":"m 607 444 b 535 471 583 457 554 471 b 393 297 433 471 406 374 l 346 0 l 74 0 l 190 733 l 464 733 l 426 593 l 428 590 b 654 749 474 681 554 753 "},"s":{"ha":640,"x_min":0,"x_max":0,"o":"m 183 264 b 307 188 210 229 257 188 b 367 225 331 188 363 199 b 304 283 371 251 349 267 b 147 501 204 321 128 376 b 481 749 171 653 310 749 b 696 689 554 749 638 725 l 571 490 b 467 556 543 519 513 556 b 421 519 447 556 425 543 b 492 451 415 482 465 463 b 638 242 585 414 656 361 b 303 -15 611 76 454 -15 b 51 61 203 -15 131 14 "},"t":{"ha":546,"x_min":0,"x_max":0,"o":"m 136 0 l 218 515 l 140 515 l 175 733 l 253 733 l 286 949 l 558 949 l 525 733 l 615 733 l 581 515 l 490 515 l 408 0 "},"u":{"ha":785,"x_min":0,"x_max":0,"o":"m 456 733 l 393 339 b 425 213 379 251 378 213 b 500 339 474 213 486 250 l 563 733 l 835 733 l 765 301 b 389 -15 732 85 589 -15 b 114 301 178 -15 83 101 l 183 733 "},"v":{"ha":742,"x_min":0,"x_max":0,"o":"m 224 0 l 138 733 l 413 733 l 415 425 b 410 265 417 374 411 317 l 413 265 b 458 425 428 317 444 374 l 569 733 l 838 733 l 508 0 "},"w":{"ha":1114,"x_min":0,"x_max":0,"o":"m 610 0 l 625 439 l 622 439 l 471 0 l 204 0 l 138 733 l 406 733 l 403 467 b 399 292 403 408 403 350 l 401 292 b 460 467 424 350 439 408 l 558 733 l 790 733 l 785 467 b 779 292 785 408 783 350 l 782 292 b 840 467 804 350 819 408 l 938 733 l 1210 733 l 879 0 "},"x":{"ha":821,"x_min":0,"x_max":0,"o":"m 474 0 l 440 174 b 361 38 414 128 392 83 l 336 0 l 32 0 l 314 378 l 160 733 l 471 733 l 497 575 l 500 575 b 526 632 510 594 517 614 l 583 733 l 885 733 l 613 383 l 789 0 "},"y":{"ha":758,"x_min":0,"x_max":0,"o":"m 63 -328 l 243 31 l 138 733 l 411 733 l 424 481 b 429 317 426 426 426 371 l 432 317 b 485 481 450 371 464 426 l 582 733 l 854 733 l 344 -328 "},"z":{"ha":693,"x_min":0,"x_max":0,"o":"m 32 0 l 363 519 b 257 515 328 518 292 515 l 153 515 l 188 733 l 779 733 l 450 219 b 540 222 481 221 510 222 l 653 222 l 618 0 "},"{":{"ha":417,"x_min":0,"x_max":0,"o":"m 235 -162 b 114 50 99 -162 96 -61 l 140 219 b 60 372 154 303 138 351 l 81 500 b 210 657 163 513 199 583 l 242 858 b 435 1047 264 997 335 1047 l 579 1047 l 557 906 b 429 758 471 906 443 839 l 408 619 b 265 439 392 519 364 461 l 265 436 b 349 243 361 422 363 335 l 326 108 b 408 -35 315 36 322 -35 l 388 -162 "},"|":{"ha":658,"x_min":0,"x_max":0,"o":"m 514 1215 l 514 -404 l 314 -404 l 314 1215 "},"}":{"ha":417,"x_min":0,"x_max":0,"o":"m -24 -162 l -3 -35 b 124 108 83 -35 113 36 l 146 243 b 290 436 160 335 189 422 l 290 439 b 206 619 200 461 189 519 l 226 758 b 146 906 240 839 232 906 l 168 1047 l 313 1047 b 447 858 413 1047 469 997 l 415 657 b 494 500 404 583 415 513 l 474 372 b 346 219 390 351 360 303 l 319 50 b 129 -162 301 -61 265 -162 "},"~":{"ha":694,"x_min":0,"x_max":0,"o":"m 722 397 b 518 235 668 322 610 235 b 274 326 435 235 318 326 b 149 213 231 326 201 301 l 86 315 b 299 488 138 394 208 488 b 543 396 389 488 485 396 b 660 499 581 396 606 422 "},"¡":{"ha":422,"x_min":0,"x_max":0,"o":"m 286 475 b 154 636 197 475 139 547 b 331 793 167 721 249 793 b 471 632 421 793 486 725 b 286 475 457 544 374 475 m 404 404 l 289 -328 l 13 -328 l 128 404 "},"¢":{"ha":839,"x_min":0,"x_max":0,"o":"m 542 29 l 410 29 l 438 201 b 297 550 318 269 274 407 b 547 899 318 688 406 839 l 568 1022 l 700 1022 l 685 931 b 710 932 693 931 701 932 b 760 926 726 933 743 931 l 722 694 b 581 558 644 696 592 632 b 663 429 571 499 596 429 l 681 429 l 640 176 b 564 171 615 175 590 172 "},"£":{"ha":839,"x_min":0,"x_max":0,"o":"m 82 122 b 217 197 125 150 169 178 b 263 306 246 235 256 261 b 258 453 271 356 267 406 l 163 453 l 185 599 l 236 599 l 235 608 b 228 779 226 668 218 717 b 581 1065 256 954 415 1065 b 864 918 699 1065 801 1006 l 689 768 b 600 847 672 804 647 847 b 508 764 554 847 515 810 b 521 599 501 715 525 650 l 775 599 l 753 453 l 515 453 b 417 250 507 381 468 307 b 528 217 461 249 490 235 b 590 200 549 207 565 200 b 675 250 621 200 650 221 l 803 174 b 525 -18 744 63 650 -18 b 288 42 413 -18 364 42 b 140 -7 231 42 192 24 "},"⁄":{"ha":325,"x_min":0,"x_max":0,"o":"m -258 42 l 647 1090 l 749 1011 l -162 -36 "},"¥":{"ha":839,"x_min":0,"x_max":0,"o":"m 285 0 l 333 308 l 133 308 l 151 422 l 351 422 l 356 444 l 328 547 l 171 547 l 189 661 l 297 661 l 192 1047 l 486 1047 l 513 817 b 524 668 518 767 521 718 l 526 668 b 579 817 544 718 557 768 l 685 1047 l 978 1047 l 760 661 l 874 661 l 856 547 l 696 547 l 639 444 l 635 422 l 836 422 l 818 308 l 617 308 l 568 0 "},"ƒ":{"ha":839,"x_min":0,"x_max":0,"o":"m 640 517 l 479 29 b 171 -208 433 -111 315 -208 b 54 -187 129 -208 92 -200 l 124 36 b 172 33 140 35 156 33 b 260 106 232 33 243 53 l 393 517 l 307 517 l 378 736 l 465 736 l 508 872 b 814 1151 563 1036 622 1151 b 918 1138 853 1151 882 1146 l 933 1135 l 871 917 b 821 922 854 918 838 922 b 749 853 772 922 763 892 l 711 736 l 796 736 l 724 517 "},"§":{"ha":776,"x_min":0,"x_max":0,"o":"m 410 547 b 343 433 369 522 338 486 b 501 307 347 388 411 346 b 571 431 553 350 575 389 b 410 547 553 481 508 500 m 819 785 l 625 785 l 631 807 b 533 913 640 869 599 913 b 426 833 474 913 433 875 b 513 725 417 775 469 747 b 694 629 572 693 636 664 b 794 433 782 578 801 479 b 658 206 788 372 744 272 b 735 46 697 186 746 113 b 344 -235 711 -108 622 -231 b 61 22 42 -239 53 -25 l 64 43 l 267 43 b 375 -82 250 -35 300 -82 b 499 13 429 -82 489 -54 b 381 139 507 58 474 90 b 206 238 326 167 260 199 b 118 439 115 304 108 381 b 258 642 131 517 178 592 b 217 817 235 678 200 711 b 576 1065 240 961 369 1065 b 824 810 736 1065 851 982 "},"¤":{"ha":839,"x_min":0,"x_max":0,"o":"m 168 251 b 144 429 143 311 133 358 b 225 611 156 497 181 554 l 174 671 l 300 782 l 351 721 b 539 774 410 753 478 774 b 717 721 604 774 667 756 l 788 782 l 881 671 l 810 611 b 831 431 832 556 842 497 b 753 251 821 368 794 303 l 804 190 l 676 81 l 625 142 b 438 88 564 108 501 88 b 260 142 371 88 310 106 l 189 81 l 97 190 m 461 260 b 658 431 558 260 644 340 b 515 601 672 521 613 601 b 317 431 418 601 331 521 b 461 260 303 340 364 260 "},"'":{"ha":413,"x_min":0,"x_max":0,"o":"m 196 544 l 233 1047 l 510 1047 l 389 544 "},"“":{"ha":851,"x_min":0,"x_max":0,"o":"m 400 1047 l 624 1047 l 417 544 l 139 544 m 742 1047 l 964 1047 l 757 544 l 479 544 "},"«":{"ha":738,"x_min":0,"x_max":0,"o":"m 124 444 l 411 760 l 518 668 l 306 444 l 447 221 l 311 129 m 396 444 l 683 760 l 790 668 l 578 444 l 719 221 l 583 129 "},"‹":{"ha":465,"x_min":0,"x_max":0,"o":"m 124 444 l 411 760 l 518 668 l 306 444 l 447 221 l 311 129 "},"›":{"ha":465,"x_min":0,"x_max":0,"o":"m 483 444 l 196 129 l 88 221 l 301 444 l 158 668 l 296 760 "},"ﬁ":{"ha":951,"x_min":0,"x_max":0,"o":"m 121 0 l 203 515 l 124 515 l 158 733 l 238 733 l 250 818 b 536 1122 281 1011 378 1122 b 665 1103 581 1122 624 1115 l 625 851 b 574 876 611 864 594 876 b 515 768 529 876 525 836 l 510 733 l 607 733 l 572 515 l 475 515 l 393 0 m 606 0 l 722 733 l 994 733 l 878 0 m 871 804 b 736 964 783 804 722 875 b 918 1122 750 1050 832 1122 b 1054 965 1006 1122 1068 1054 b 871 804 1040 878 960 804 "},"ﬂ":{"ha":951,"x_min":0,"x_max":0,"o":"m 606 0 l 781 1107 l 1053 1107 l 878 0 m 121 0 l 203 515 l 124 515 l 158 733 l 238 733 l 250 818 b 536 1122 281 1011 378 1122 b 665 1103 581 1122 624 1115 l 625 851 b 574 876 611 864 594 876 b 515 768 535 876 525 836 l 510 733 l 607 733 l 572 515 l 475 515 l 393 0 "},"–":{"ha":694,"x_min":0,"x_max":0,"o":"m 53 332 l 89 557 l 783 557 l 747 332 "},"†":{"ha":832,"x_min":0,"x_max":0,"o":"m 260 -231 l 385 563 l 142 563 l 175 772 l 418 772 l 461 1047 l 701 1047 l 658 772 l 901 772 l 868 563 l 625 563 l 500 -231 "},"‡":{"ha":832,"x_min":0,"x_max":0,"o":"m 260 -231 l 325 183 l 82 183 l 115 393 l 358 393 l 388 576 l 144 576 l 178 786 l 421 786 l 461 1047 l 701 1047 l 661 786 l 904 786 l 871 576 l 628 576 l 599 393 l 842 393 l 808 183 l 565 183 l 500 -231 "},"·":{"ha":419,"x_min":0,"x_max":0,"o":"m 240 196 b 108 357 151 196 94 268 b 286 514 121 442 204 514 b 425 353 376 514 440 446 b 240 196 411 265 328 196 "},"¶":{"ha":764,"x_min":0,"x_max":0,"o":"m 669 888 l 578 888 l 413 -156 l 225 -156 l 339 563 b 142 800 199 563 118 651 b 481 1047 172 988 293 1047 l 933 1047 l 908 888 l 857 888 l 692 -156 l 504 -156 "},"•":{"ha":583,"x_min":0,"x_max":0,"o":"m 639 526 b 332 261 615 381 478 261 b 113 526 186 261 89 381 b 415 788 135 669 269 788 b 639 526 561 788 661 669 "},"‚":{"ha":511,"x_min":0,"x_max":0,"o":"m 240 -221 l 18 -221 l 225 283 l 503 283 "},"„":{"ha":851,"x_min":0,"x_max":0,"o":"m 582 -221 l 358 -221 l 565 283 l 843 283 m 240 -221 l 18 -221 l 225 283 l 503 283 "},"”":{"ha":851,"x_min":0,"x_max":0,"o":"m 703 544 l 479 544 l 686 1047 l 964 1047 m 361 544 l 139 544 l 346 1047 l 624 1047 "},"»":{"ha":738,"x_min":0,"x_max":0,"o":"m 360 221 l 574 444 l 431 668 l 568 760 l 756 444 l 468 129 m 88 221 l 301 444 l 158 668 l 294 760 l 483 444 l 194 129 "},"…":{"ha":1389,"x_min":0,"x_max":0,"o":"m 228 -15 b 96 146 139 -15 81 57 b 274 303 108 231 192 303 b 413 142 364 303 428 235 b 228 -15 399 54 315 -15 m 690 -15 b 558 146 601 -15 543 57 b 736 303 571 231 654 303 b 875 142 826 303 890 235 b 690 -15 861 54 778 -15 m 1153 -15 b 1021 146 1064 -15 1006 57 b 1199 303 1033 231 1117 303 b 1338 142 1289 303 1353 235 b 1153 -15 1324 54 1240 -15 "},"‰":{"ha":1607,"x_min":0,"x_max":0,"o":"m 908 496 b 1094 239 1058 496 1117 376 b 826 -18 1074 101 976 -18 b 639 239 676 -18 618 101 b 908 496 661 376 758 496 m 883 342 b 824 239 842 342 828 267 b 851 136 819 213 810 136 b 910 239 893 136 906 213 b 883 342 914 267 925 342 m 1411 496 b 1597 239 1561 496 1619 376 b 1329 -18 1576 101 1479 -18 b 1142 239 1179 -18 1121 101 b 1411 496 1164 376 1261 496 m 1386 342 b 1326 239 1344 342 1331 267 b 1354 136 1322 213 1313 136 b 1413 239 1396 136 1408 213 b 1386 342 1417 267 1428 342 m 443 1065 b 631 808 593 1065 653 946 b 363 551 610 671 513 551 b 175 808 213 551 154 671 b 443 1065 197 946 293 1065 m 419 911 b 360 808 378 911 364 836 b 386 706 356 782 344 706 b 446 808 428 706 442 782 b 419 911 450 836 461 911 m 132 42 l 1039 1090 l 1139 1011 l 229 -36 "},"¿":{"ha":757,"x_min":0,"x_max":0,"o":"m 544 142 l 496 143 b 326 8 401 143 343 111 b 368 -110 321 -31 314 -110 b 447 10 424 -110 440 -32 l 719 10 l 717 -11 b 335 -343 689 -208 528 -343 b 46 -1 135 -343 14 -201 b 299 290 67 131 149 258 l 315 399 l 585 399 m 451 476 b 319 638 363 476 306 549 b 497 794 332 722 415 794 b 636 633 588 794 651 726 b 451 476 622 546 539 476 "},"`":{"ha":528,"x_min":0,"x_max":0,"o":"m 356 829 l 253 1063 l 469 1063 l 507 829 "},"´":{"ha":528,"x_min":0,"x_max":0,"o":"m 383 1063 l 599 1063 l 425 829 l 272 829 "},"ˆ":{"ha":528,"x_min":0,"x_max":0,"o":"m 333 840 l 167 840 l 315 1047 l 558 1047 l 628 840 l 467 840 l 422 964 "},"˜":{"ha":528,"x_min":0,"x_max":0,"o":"m 699 1049 l 694 1025 b 501 839 679 928 606 839 b 324 892 415 839 374 892 b 272 836 293 892 276 863 l 129 836 b 324 1044 139 939 208 1044 b 439 1013 369 1044 400 1029 b 504 992 460 1003 481 992 b 558 1049 538 992 551 1021 "},"¯":{"ha":528,"x_min":0,"x_max":0,"o":"m 157 1017 l 693 1017 l 669 869 l 133 869 "},"˘":{"ha":528,"x_min":0,"x_max":0,"o":"m 179 1053 l 289 1053 b 417 968 300 983 350 968 b 574 1053 485 968 539 983 l 682 1053 b 393 818 651 913 533 818 b 217 897 322 818 254 843 b 179 1053 189 938 171 997 "},"˙":{"ha":528,"x_min":0,"x_max":0,"o":"m 397 832 b 300 947 333 832 290 883 b 429 1058 310 1007 369 1058 b 529 944 493 1058 539 1010 b 397 832 519 882 461 832 "},"¨":{"ha":528,"x_min":0,"x_max":0,"o":"m 246 832 b 149 947 182 832 139 883 b 279 1058 158 1007 218 1058 b 378 944 342 1058 388 1010 b 246 832 368 882 310 832 m 549 832 b 451 947 485 832 442 883 b 582 1058 461 1007 521 1058 b 681 944 644 1058 690 1010 b 549 832 671 882 613 832 "},"˚":{"ha":528,"x_min":0,"x_max":0,"o":"m 435 1094 b 565 943 521 1094 578 1029 b 389 792 551 858 472 792 b 261 942 308 792 249 858 b 435 1094 275 1024 351 1094 m 403 879 b 478 944 439 879 472 908 b 425 1007 483 979 460 1007 b 350 944 390 1007 356 979 b 403 879 344 908 367 879 "},"¸":{"ha":528,"x_min":0,"x_max":0,"o":"m 357 -47 b 172 -265 332 -143 274 -232 l 142 -144 b 190 -60 168 -125 186 -89 l 193 -47 "},"˝":{"ha":528,"x_min":0,"x_max":0,"o":"m 243 1063 l 458 1063 l 285 829 l 132 829 m 522 1063 l 738 1063 l 564 829 l 411 829 "},"˛":{"ha":528,"x_min":0,"x_max":0,"o":"m 310 0 b 242 -99 279 -24 247 -61 b 294 -154 235 -136 260 -154 b 350 -144 313 -154 332 -150 l 321 -254 b 254 -268 299 -264 276 -268 b 110 -142 176 -268 96 -231 b 214 0 118 -87 168 -32 "},"ˇ":{"ha":528,"x_min":0,"x_max":0,"o":"m 660 1047 l 526 840 l 283 840 l 199 1047 l 365 1047 l 415 924 l 499 1047 "},"—":{"ha":1389,"x_min":0,"x_max":0,"o":"m 233 332 l 269 557 l 1297 557 l 1261 332 "},"Æ":{"ha":983,"x_min":0,"x_max":0,"o":"m 533 351 l 543 646 b 551 794 544 704 550 750 l 549 794 b 508 646 536 750 525 704 l 417 351 m 529 133 l 347 133 l 304 0 l 11 0 l 418 1047 l 1096 1047 l 1057 800 l 775 800 l 775 654 l 1013 654 l 972 407 l 778 407 l 781 247 l 969 247 l 931 0 l 526 0 "},"ª":{"ha":474,"x_min":0,"x_max":0,"o":"m 408 842 b 413 894 410 853 415 875 b 383 931 411 914 404 931 b 333 888 358 931 343 911 b 318 822 325 864 319 836 b 315 772 315 810 313 789 b 349 742 318 756 328 742 b 393 782 372 742 386 761 b 408 842 403 804 407 829 m 393 689 l 390 688 l 389 690 b 257 607 363 643 315 607 b 149 840 135 607 135 754 b 333 1065 163 926 211 1065 b 435 988 390 1065 421 1031 l 438 989 l 438 1021 l 442 1056 l 621 1056 l 551 617 l 375 617 "},"Ł":{"ha":611,"x_min":0,"x_max":0,"o":"m 83 0 l 138 340 l 31 267 l 64 472 l 169 540 l 249 1047 l 532 1047 l 476 692 l 608 786 l 575 578 l 444 490 l 406 247 l 618 247 l 579 0 "},"Ø":{"ha":904,"x_min":0,"x_max":0,"o":"m 486 236 b 650 517 593 236 639 447 l 660 579 l 657 579 l 424 299 b 486 236 426 265 450 236 m 575 811 b 414 497 463 811 424 565 l 408 468 l 411 468 l 640 746 b 575 811 636 783 613 811 m 1031 993 l 917 858 b 935 524 947 758 954 646 b 449 -18 894 268 736 -18 b 217 75 350 -18 271 17 l 125 -32 l 35 38 l 156 182 b 135 524 118 283 115 403 b 619 1065 175 779 332 1065 b 854 963 717 1065 792 1033 l 939 1064 "},"Œ":{"ha":1146,"x_min":0,"x_max":0,"o":"m 639 531 b 583 804 649 597 682 804 b 465 682 529 804 490 747 b 422 514 439 617 426 544 b 413 353 417 481 407 413 b 493 243 419 294 440 243 b 639 531 590 243 628 465 m 942 654 l 1151 654 l 1111 407 l 901 407 l 876 247 l 1111 247 l 1072 0 l 571 0 b 494 -14 546 -6 521 -11 b 421 -18 469 -17 446 -18 b 136 532 136 -18 99 299 b 596 1065 172 760 317 1065 b 750 1047 649 1065 697 1054 l 1235 1047 l 1196 800 l 964 800 "},"º":{"ha":474,"x_min":0,"x_max":0,"o":"m 331 607 b 146 835 182 607 126 710 b 407 1065 167 963 260 1065 b 590 832 557 1065 610 960 b 331 607 569 703 478 607 m 350 729 b 418 836 394 729 414 808 b 385 943 424 864 429 943 b 318 836 342 943 324 864 b 350 729 314 808 307 729 "},"æ":{"ha":1153,"x_min":0,"x_max":0,"o":"m 910 457 b 860 550 915 497 908 550 b 783 457 814 550 788 494 m 760 310 l 758 294 b 806 197 754 256 756 197 b 874 249 836 197 864 219 l 1140 249 b 775 -15 1083 79 939 -15 b 567 60 686 -15 626 4 b 317 -15 489 13 401 -15 b 79 236 171 -15 54 82 b 383 472 104 394 235 472 b 519 457 431 472 475 467 b 392 546 522 528 454 546 b 201 504 329 546 264 533 l 236 717 b 463 749 313 736 388 749 b 674 676 542 749 622 732 b 903 749 747 725 818 749 b 1168 356 1128 749 1200 560 l 1160 310 m 406 171 b 486 236 446 171 479 193 b 424 300 493 279 465 300 b 344 235 385 300 351 276 b 406 171 338 192 365 171 "},"ı":{"ha":419,"x_min":0,"x_max":0,"o":"m 74 0 l 190 733 l 463 733 l 346 0 "},"ł":{"ha":419,"x_min":0,"x_max":0,"o":"m 74 0 l 136 399 l 43 333 l 75 539 l 169 601 l 249 1107 l 521 1107 l 464 744 l 557 811 l 526 614 l 432 542 l 346 0 "},"ø":{"ha":767,"x_min":0,"x_max":0,"o":"m 469 544 b 367 367 404 544 378 442 b 414 189 354 292 349 189 b 517 367 479 189 504 292 b 469 544 528 442 535 544 m 746 631 b 783 367 794 554 797 454 b 381 -15 750 161 615 -15 b 226 19 322 -15 275 -7 l 133 -83 l 44 3 l 135 100 b 100 367 93 167 85 268 b 501 749 132 572 267 749 b 656 713 553 749 613 738 l 749 819 l 844 736 "},"œ":{"ha":1157,"x_min":0,"x_max":0,"o":"m 914 457 b 864 550 919 497 913 550 b 788 457 818 550 792 494 m 764 310 l 763 294 b 810 197 756 256 760 197 b 878 249 840 197 868 219 l 1144 249 b 786 -15 1088 79 943 -15 b 583 50 710 -15 638 8 b 386 -15 519 6 447 -15 b 100 371 160 -15 65 147 b 497 749 135 585 281 749 b 697 682 571 749 640 726 b 914 749 761 725 839 749 b 1172 356 1132 749 1204 560 l 1164 310 m 415 189 b 521 367 482 189 514 321 b 469 544 528 414 539 544 b 367 367 404 544 374 413 b 415 189 360 321 349 189 "},"ß":{"ha":851,"x_min":0,"x_max":0,"o":"m 199 515 l 124 515 l 158 733 l 233 733 b 329 983 247 824 265 908 b 624 1122 403 1071 518 1122 b 901 835 788 1122 929 1007 b 725 622 888 743 826 639 l 725 619 b 867 363 849 611 885 472 b 456 -17 833 153 672 -17 l 493 217 b 586 360 557 228 578 307 b 540 515 594 411 597 501 l 575 733 b 639 810 613 743 633 772 b 590 879 644 844 629 879 b 513 776 528 879 519 821 l 389 0 l 117 0 "},"¹":{"ha":503,"x_min":0,"x_max":0,"o":"m 238 428 l 314 910 l 238 910 l 260 1056 l 518 1056 l 419 428 "},"¬":{"ha":694,"x_min":0,"x_max":0,"o":"m 565 411 l 101 411 l 126 571 l 750 571 l 686 168 l 526 168 "},"µ":{"ha":799,"x_min":0,"x_max":0,"o":"m 842 733 l 765 250 b 526 -15 743 118 683 -15 b 364 139 436 -15 378 60 l 361 136 l 350 25 l 294 -328 l 22 -328 l 190 733 l 463 733 l 406 381 b 443 256 396 319 389 256 b 510 363 490 256 501 307 l 569 733 "},"™":{"ha":1194,"x_min":0,"x_max":0,"o":"m 1240 486 l 1111 486 l 1181 925 l 1178 925 l 953 486 l 867 486 l 781 925 l 778 925 l 708 486 l 579 486 l 668 1047 l 872 1047 l 943 701 l 946 701 l 1125 1047 l 1329 1047 m 588 925 l 422 925 l 353 486 l 211 486 l 281 925 l 122 925 l 142 1047 l 607 1047 "},"Ð":{"ha":868,"x_min":0,"x_max":0,"o":"m 156 407 l 72 407 l 113 654 l 196 654 l 257 1047 l 485 1047 b 899 528 807 1047 949 844 b 339 0 822 44 511 0 l 92 0 m 415 253 b 608 514 544 254 592 415 b 500 786 622 607 631 796 "},"½":{"ha":1258,"x_min":0,"x_max":0,"o":"m 158 42 l 1064 1090 l 1165 1011 l 254 -36 m 244 428 l 321 910 l 244 910 l 267 1056 l 525 1056 l 426 428 m 711 0 l 925 221 b 1079 442 986 283 1067 363 b 1046 497 1083 465 1078 497 b 989 421 1006 497 993 446 l 985 397 l 806 397 l 810 419 b 1075 638 829 546 938 638 b 1257 431 1204 638 1275 547 b 1039 147 1239 315 1135 215 l 1040 144 l 1203 144 l 1181 0 "},"±":{"ha":694,"x_min":0,"x_max":0,"o":"m 382 717 l 542 717 l 515 553 l 747 553 l 722 393 l 490 393 l 463 219 l 303 219 l 331 393 l 99 393 l 124 553 l 356 553 m 60 151 l 683 151 l 658 -8 l 35 -8 "},"Þ":{"ha":811,"x_min":0,"x_max":0,"o":"m 83 0 l 249 1047 l 532 1047 l 511 908 b 867 553 733 908 910 828 b 399 204 824 281 643 197 l 367 0 m 436 440 b 582 557 514 436 569 479 b 496 681 592 621 565 681 l 474 679 "},"¼":{"ha":1258,"x_min":0,"x_max":0,"o":"m 999 369 b 1015 450 1003 396 1010 424 l 1014 449 l 1011 451 l 875 263 l 979 263 m 1142 128 l 1121 0 l 938 0 l 958 128 l 711 128 l 732 260 l 994 628 l 1221 628 l 1163 263 l 1221 263 l 1200 128 m 179 42 l 1085 1090 l 1186 1011 l 275 -36 m 251 428 l 328 910 l 251 910 l 274 1056 l 532 1056 l 433 428 "},"÷":{"ha":694,"x_min":0,"x_max":0,"o":"m 106 435 l 729 435 l 703 275 l 79 275 m 568 692 l 543 532 l 322 532 l 347 692 m 486 178 l 461 18 l 240 18 l 265 178 "},"¦":{"ha":658,"x_min":0,"x_max":0,"o":"m 514 1094 l 514 526 l 314 526 l 314 1094 m 514 283 l 514 -282 l 314 -282 l 314 283 "},"°":{"ha":556,"x_min":0,"x_max":0,"o":"m 622 857 b 381 649 604 742 494 649 b 206 857 265 649 188 742 b 446 1065 222 971 331 1065 b 622 857 560 1065 640 971 m 475 857 b 424 918 481 890 457 918 b 353 857 390 918 358 890 b 404 796 347 824 371 796 b 475 857 438 796 469 824 "},"þ":{"ha":788,"x_min":0,"x_max":0,"o":"m 804 367 b 513 -15 781 222 700 -15 b 357 100 429 -15 386 32 l 354 97 l 350 44 l 340 -39 l 294 -328 l 22 -328 l 235 1014 l 507 1014 l 465 754 b 439 632 458 714 449 672 l 442 629 b 625 749 483 700 543 749 b 804 367 811 749 828 514 m 432 214 b 525 379 494 214 519 340 b 483 525 532 418 540 525 b 397 374 425 525 403 413 b 432 214 390 336 375 214 "},"¾":{"ha":1258,"x_min":0,"x_max":0,"o":"m 1026 369 b 1043 450 1031 396 1038 424 l 1042 449 l 1039 451 l 903 263 l 1007 263 m 1169 128 l 1149 0 l 965 0 l 986 128 l 739 128 l 760 260 l 1022 628 l 1249 628 l 1190 263 l 1249 263 l 1228 128 m 242 42 l 1147 1090 l 1249 1011 l 338 -36 m 326 614 l 325 603 b 361 554 322 578 329 554 b 421 615 397 554 417 588 b 338 681 431 671 390 685 l 326 681 l 346 810 l 368 810 b 454 874 417 810 446 825 b 424 925 457 894 453 925 b 379 881 393 925 386 900 l 379 875 l 201 875 b 453 1065 228 990 326 1065 b 635 882 567 1065 651 989 b 532 754 626 829 589 779 b 600 606 590 724 610 669 b 338 418 581 485 458 418 b 146 614 211 418 122 493 "},"²":{"ha":503,"x_min":0,"x_max":0,"o":"m 71 428 l 285 649 b 439 869 346 711 426 790 b 404 925 443 893 436 925 b 349 849 364 925 353 874 l 344 825 l 165 825 l 169 847 b 433 1065 189 974 296 1065 b 617 858 563 1065 635 975 b 399 575 599 743 493 643 l 400 572 l 563 572 l 540 428 "},"®":{"ha":1153,"x_min":0,"x_max":0,"o":"m 744 1065 b 1203 524 1100 1065 1247 806 b 574 -18 1156 226 901 -18 b 117 524 193 -18 75 267 b 744 1065 156 775 361 1065 m 721 933 b 251 524 476 933 289 767 b 592 114 213 281 347 114 b 1068 529 835 114 1031 286 b 721 933 1107 772 964 933 m 496 228 l 361 228 l 454 814 l 783 814 b 950 633 904 810 971 765 b 769 474 933 524 869 481 l 868 228 l 715 228 l 626 460 l 532 460 m 572 708 l 549 565 l 714 565 b 815 632 772 565 808 585 b 708 708 826 697 785 708 "},"−":{"ha":694,"x_min":0,"x_max":0,"o":"m 106 435 l 729 435 l 703 275 l 79 275 "},"ð":{"ha":765,"x_min":0,"x_max":0,"o":"m 415 189 b 521 367 482 189 514 321 b 472 558 532 442 542 558 b 367 367 407 558 378 440 b 415 189 360 321 349 189 m 667 1106 l 724 1022 l 611 967 b 781 360 735 797 831 617 b 376 -15 740 153 604 -15 b 100 365 151 -15 67 156 b 497 733 136 576 267 756 b 418 867 482 767 465 806 l 306 808 l 256 894 l 361 950 b 274 1047 347 972 281 1035 l 471 1136 b 551 1047 507 1103 524 1083 "},"×":{"ha":694,"x_min":0,"x_max":0,"o":"m 132 544 l 264 657 l 421 468 l 640 657 l 735 544 l 518 356 l 675 167 l 544 54 l 386 243 l 168 54 l 72 167 l 292 356 "},"³":{"ha":503,"x_min":0,"x_max":0,"o":"m 299 614 l 297 603 b 333 554 294 578 301 554 b 393 615 369 554 389 588 b 310 681 403 671 363 685 l 299 681 l 318 810 l 340 810 b 426 874 389 810 418 825 b 396 925 429 894 425 925 b 351 881 365 925 358 900 l 351 875 l 174 875 b 425 1065 200 990 299 1065 b 607 882 539 1065 624 989 b 504 754 599 829 561 779 b 572 606 563 724 582 669 b 310 418 553 485 431 418 b 118 614 183 418 94 493 "},"©":{"ha":1153,"x_min":0,"x_max":0,"o":"m 919 429 b 633 218 885 297 760 218 b 385 531 447 218 357 356 b 729 842 413 710 546 842 b 953 636 860 842 950 767 l 825 636 b 708 728 822 701 778 728 b 519 536 596 728 536 640 b 643 332 504 436 533 332 b 792 429 707 332 776 364 m 574 -18 b 117 525 193 -18 75 265 b 744 1065 157 776 361 1065 b 1203 525 1100 1065 1247 806 b 574 -18 1156 225 901 -18 m 721 933 b 251 525 476 933 290 768 b 592 114 213 279 347 114 b 1069 531 835 114 1029 285 b 721 933 1107 774 964 933 "},"Á":{"ha":840,"x_min":0,"x_max":0,"o":"m 538 0 l 538 135 l 347 135 l 303 0 l 11 0 l 428 1047 l 774 1047 l 831 0 m 540 357 l 547 600 b 558 797 550 665 554 732 l 556 797 b 497 600 536 732 519 665 l 421 357 m 622 1356 l 838 1356 l 663 1122 l 510 1122 "},"Â":{"ha":840,"x_min":0,"x_max":0,"o":"m 538 0 l 538 135 l 347 135 l 303 0 l 11 0 l 428 1047 l 774 1047 l 831 0 m 540 357 l 547 600 b 558 797 550 665 554 732 l 556 797 b 497 600 536 732 519 665 l 421 357 m 543 1133 l 376 1133 l 526 1340 l 769 1340 l 838 1133 l 676 1133 l 632 1257 "},"Ä":{"ha":840,"x_min":0,"x_max":0,"o":"m 538 0 l 538 135 l 347 135 l 303 0 l 11 0 l 428 1047 l 774 1047 l 831 0 m 540 357 l 547 600 b 558 797 550 665 554 732 l 556 797 b 497 600 536 732 519 665 l 421 357 m 463 1125 b 365 1240 399 1125 356 1176 b 496 1351 375 1300 435 1351 b 594 1238 558 1351 606 1303 b 463 1125 585 1175 526 1125 m 765 1125 b 668 1240 701 1125 658 1176 b 799 1351 678 1300 738 1351 b 897 1238 861 1351 908 1303 b 765 1125 888 1175 829 1125 "},"À":{"ha":840,"x_min":0,"x_max":0,"o":"m 538 0 l 538 135 l 347 135 l 303 0 l 11 0 l 428 1047 l 774 1047 l 831 0 m 540 357 l 547 600 b 558 797 550 665 554 732 l 556 797 b 497 600 536 732 519 665 l 421 357 m 558 1122 l 457 1356 l 674 1356 l 710 1122 "},"Å":{"ha":840,"x_min":0,"x_max":0,"o":"m 538 0 l 538 135 l 347 135 l 303 0 l 11 0 l 428 1047 l 774 1047 l 831 0 m 540 357 l 547 600 b 558 797 550 665 554 732 l 556 797 b 497 600 536 732 519 665 l 421 357 m 644 1388 b 775 1236 731 1388 789 1322 b 600 1085 761 1151 683 1085 b 472 1235 519 1085 458 1151 b 644 1388 485 1317 561 1388 m 614 1172 b 688 1238 650 1172 682 1201 b 635 1300 693 1272 669 1300 b 560 1238 600 1300 565 1272 b 614 1172 554 1201 578 1172 "},"Ã":{"ha":840,"x_min":0,"x_max":0,"o":"m 538 0 l 538 135 l 347 135 l 303 0 l 11 0 l 428 1047 l 774 1047 l 831 0 m 540 357 l 547 600 b 558 797 550 665 554 732 l 556 797 b 497 600 536 732 519 665 l 421 357 m 901 1342 l 897 1318 b 704 1132 882 1221 808 1132 b 526 1185 618 1132 576 1185 b 476 1129 496 1185 481 1156 l 333 1129 b 528 1338 342 1232 413 1338 b 643 1306 574 1338 604 1322 b 708 1285 664 1296 685 1285 b 761 1342 742 1285 756 1314 "},"Ç":{"ha":742,"x_min":0,"x_max":0,"o":"m 774 740 b 651 801 740 779 710 801 b 425 524 504 801 443 639 b 558 246 406 401 417 246 b 719 313 622 246 667 271 l 656 19 b 479 -18 594 -6 542 -18 b 135 517 247 -18 78 158 b 681 1065 208 986 543 1065 b 822 1040 731 1065 779 1058 m 508 -47 b 324 -265 483 -143 425 -232 l 293 -144 b 342 -60 319 -125 338 -89 l 344 -47 "},"É":{"ha":693,"x_min":0,"x_max":0,"o":"m 249 1047 l 775 1047 l 736 800 l 493 800 l 471 654 l 689 654 l 649 407 l 431 407 l 406 247 l 649 247 l 610 0 l 83 0 m 535 1356 l 750 1356 l 575 1122 l 422 1122 "},"Ê":{"ha":693,"x_min":0,"x_max":0,"o":"m 249 1047 l 775 1047 l 736 800 l 493 800 l 471 654 l 689 654 l 649 407 l 431 407 l 406 247 l 649 247 l 610 0 l 83 0 m 463 1133 l 296 1133 l 446 1340 l 689 1340 l 757 1133 l 596 1133 l 551 1257 "},"Ë":{"ha":693,"x_min":0,"x_max":0,"o":"m 249 1047 l 775 1047 l 736 800 l 493 800 l 471 654 l 689 654 l 649 407 l 431 407 l 406 247 l 649 247 l 610 0 l 83 0 m 375 1125 b 278 1240 311 1125 268 1176 b 408 1351 288 1300 347 1351 b 507 1238 471 1351 518 1303 b 375 1125 497 1175 439 1125 m 678 1125 b 581 1240 614 1125 571 1176 b 711 1351 590 1300 650 1351 b 810 1238 774 1351 821 1303 b 678 1125 800 1175 742 1125 "},"È":{"ha":693,"x_min":0,"x_max":0,"o":"m 249 1047 l 775 1047 l 736 800 l 493 800 l 471 654 l 689 654 l 649 407 l 431 407 l 406 247 l 649 247 l 610 0 l 83 0 m 485 1122 l 383 1356 l 600 1356 l 636 1122 "},"Í":{"ha":450,"x_min":0,"x_max":0,"o":"m 83 0 l 249 1047 l 532 1047 l 367 0 m 392 1356 l 607 1356 l 432 1122 l 279 1122 "},"Î":{"ha":450,"x_min":0,"x_max":0,"o":"m 83 0 l 249 1047 l 532 1047 l 367 0 m 340 1133 l 174 1133 l 324 1340 l 567 1340 l 635 1133 l 474 1133 l 429 1257 "},"Ï":{"ha":450,"x_min":0,"x_max":0,"o":"m 83 0 l 249 1047 l 532 1047 l 367 0 m 253 1125 b 156 1240 189 1125 146 1176 b 286 1351 165 1300 225 1351 b 385 1238 349 1351 396 1303 b 253 1125 375 1175 317 1125 m 556 1125 b 458 1240 492 1125 449 1176 b 589 1351 468 1300 528 1351 b 688 1238 651 1351 699 1303 b 556 1125 678 1175 619 1125 "},"Ì":{"ha":450,"x_min":0,"x_max":0,"o":"m 83 0 l 249 1047 l 532 1047 l 367 0 m 363 1122 l 261 1356 l 478 1356 l 514 1122 "},"Ñ":{"ha":906,"x_min":0,"x_max":0,"o":"m 249 1047 l 518 1047 l 646 417 l 649 419 b 674 781 657 540 654 660 l 715 1047 l 988 1047 l 822 0 l 550 0 l 435 604 l 432 601 b 404 307 422 503 419 406 l 356 0 l 83 0 m 933 1342 l 929 1318 b 736 1132 914 1221 840 1132 b 558 1185 650 1132 608 1185 b 508 1129 528 1185 513 1156 l 365 1129 b 560 1338 374 1232 444 1338 b 675 1306 606 1338 636 1322 b 740 1285 696 1296 717 1285 b 793 1342 774 1285 788 1314 "},"Ó":{"ha":904,"x_min":0,"x_max":0,"o":"m 135 524 b 619 1065 175 779 332 1065 b 935 524 907 1065 975 779 b 449 -18 894 268 736 -18 b 135 524 161 -18 94 268 m 424 524 b 490 246 413 458 383 246 b 646 524 597 246 635 458 b 578 801 656 589 685 801 b 424 524 471 801 433 589 m 654 1356 l 869 1356 l 694 1122 l 542 1122 "},"Ô":{"ha":904,"x_min":0,"x_max":0,"o":"m 135 524 b 619 1065 175 779 332 1065 b 935 524 907 1065 975 779 b 449 -18 894 268 736 -18 b 135 524 161 -18 94 268 m 424 524 b 490 246 413 458 383 246 b 646 524 597 246 635 458 b 578 801 656 589 685 801 b 424 524 471 801 433 589 m 568 1133 l 401 1133 l 551 1340 l 794 1340 l 863 1133 l 701 1133 l 657 1257 "},"Ö":{"ha":904,"x_min":0,"x_max":0,"o":"m 135 524 b 619 1065 175 779 332 1065 b 935 524 907 1065 975 779 b 449 -18 894 268 736 -18 b 135 524 161 -18 94 268 m 424 524 b 490 246 413 458 383 246 b 646 524 597 246 635 458 b 578 801 656 589 685 801 b 424 524 471 801 433 589 m 481 1125 b 383 1240 417 1125 374 1176 b 514 1351 393 1300 453 1351 b 613 1238 576 1351 624 1303 b 481 1125 603 1175 544 1125 m 783 1125 b 686 1240 719 1125 676 1176 b 817 1351 696 1300 756 1351 b 915 1238 879 1351 926 1303 b 783 1125 906 1175 847 1125 "},"Ò":{"ha":904,"x_min":0,"x_max":0,"o":"m 135 524 b 619 1065 175 779 332 1065 b 935 524 907 1065 975 779 b 449 -18 894 268 736 -18 b 135 524 161 -18 94 268 m 424 524 b 490 246 413 458 383 246 b 646 524 597 246 635 458 b 578 801 656 589 685 801 b 424 524 471 801 433 589 m 556 1122 l 454 1356 l 671 1356 l 707 1122 "},"Õ":{"ha":904,"x_min":0,"x_max":0,"o":"m 135 524 b 619 1065 175 779 332 1065 b 935 524 907 1065 975 779 b 449 -18 894 268 736 -18 b 135 524 161 -18 94 268 m 424 524 b 490 246 413 458 383 246 b 646 524 597 246 635 458 b 578 801 656 589 685 801 b 424 524 471 801 433 589 m 933 1342 l 929 1318 b 736 1132 914 1221 840 1132 b 558 1185 650 1132 608 1185 b 508 1129 528 1185 513 1156 l 365 1129 b 560 1338 374 1232 444 1338 b 675 1306 606 1338 636 1322 b 740 1285 696 1296 717 1285 b 793 1342 774 1285 788 1314 "},"Š":{"ha":656,"x_min":0,"x_max":0,"o":"m 113 353 b 274 236 143 294 201 236 b 368 306 313 236 361 260 b 354 364 372 331 367 349 b 314 404 344 379 331 392 b 194 538 265 447 224 488 b 167 721 168 586 154 644 b 540 1065 186 843 299 1065 b 733 1013 608 1065 679 1044 l 683 694 b 535 807 658 747 600 807 b 451 743 501 807 457 783 b 469 685 447 721 457 701 b 514 642 482 668 501 654 b 633 514 567 600 608 561 b 656 332 658 467 668 411 b 267 -18 625 138 464 -18 b 61 25 194 -18 124 -3 m 788 1340 l 653 1133 l 410 1133 l 326 1340 l 493 1340 l 543 1217 l 626 1340 "},"Ú":{"ha":864,"x_min":0,"x_max":0,"o":"m 953 1047 l 844 363 b 429 -18 825 236 757 -18 b 133 363 101 -18 114 236 l 242 1047 l 525 1047 l 421 389 b 414 297 417 361 410 325 b 471 246 418 268 432 246 b 544 296 511 246 533 268 b 565 388 557 325 561 361 l 669 1047 m 633 1356 l 849 1356 l 674 1122 l 521 1122 "},"Û":{"ha":864,"x_min":0,"x_max":0,"o":"m 953 1047 l 844 363 b 429 -18 825 236 757 -18 b 133 363 101 -18 114 236 l 242 1047 l 525 1047 l 421 389 b 414 297 417 361 410 325 b 471 246 418 268 432 246 b 544 296 511 246 533 268 b 565 388 557 325 561 361 l 669 1047 m 547 1133 l 381 1133 l 531 1340 l 774 1340 l 842 1133 l 681 1133 l 636 1257 "},"Ü":{"ha":864,"x_min":0,"x_max":0,"o":"m 953 1047 l 844 363 b 429 -18 825 236 757 -18 b 133 363 101 -18 114 236 l 242 1047 l 525 1047 l 421 389 b 414 297 417 361 410 325 b 471 246 418 268 432 246 b 544 296 511 246 533 268 b 565 388 557 325 561 361 l 669 1047 m 460 1125 b 363 1240 396 1125 353 1176 b 493 1351 372 1300 432 1351 b 592 1238 556 1351 603 1303 b 460 1125 582 1175 524 1125 m 763 1125 b 665 1240 699 1125 656 1176 b 796 1351 675 1300 735 1351 b 894 1238 858 1351 906 1303 b 763 1125 885 1175 826 1125 "},"Ù":{"ha":864,"x_min":0,"x_max":0,"o":"m 953 1047 l 844 363 b 429 -18 825 236 757 -18 b 133 363 101 -18 114 236 l 242 1047 l 525 1047 l 421 389 b 414 297 417 361 410 325 b 471 246 418 268 432 246 b 544 296 511 246 533 268 b 565 388 557 325 561 361 l 669 1047 m 535 1122 l 433 1356 l 650 1356 l 686 1122 "},"Ý":{"ha":807,"x_min":0,"x_max":0,"o":"m 269 0 l 340 444 l 176 1047 l 471 1047 l 518 724 l 521 724 l 669 1047 l 963 1047 l 624 444 l 553 0 m 606 1356 l 821 1356 l 646 1122 l 493 1122 "},"Ÿ":{"ha":807,"x_min":0,"x_max":0,"o":"m 269 0 l 340 444 l 176 1047 l 471 1047 l 518 724 l 521 724 l 669 1047 l 963 1047 l 624 444 l 553 0 m 432 1125 b 335 1240 368 1125 325 1176 b 465 1351 344 1300 404 1351 b 564 1238 528 1351 575 1303 b 432 1125 554 1175 496 1125 m 735 1125 b 638 1240 671 1125 628 1176 b 768 1351 647 1300 707 1351 b 867 1238 831 1351 878 1303 b 735 1125 857 1175 799 1125 "},"Ž":{"ha":819,"x_min":0,"x_max":0,"o":"m 32 0 l 424 665 b 526 808 450 711 490 761 b 346 800 471 806 407 800 l 221 800 l 260 1047 l 953 1047 l 531 331 b 471 235 511 297 489 267 b 631 247 522 239 576 247 l 792 247 l 753 0 m 869 1340 l 735 1133 l 492 1133 l 408 1340 l 575 1340 l 625 1217 l 708 1340 "},"á":{"ha":790,"x_min":0,"x_max":0,"o":"m 411 210 b 481 276 446 210 467 240 b 504 376 494 314 501 356 b 513 465 507 396 514 432 b 469 525 511 497 501 525 b 400 451 436 525 415 492 b 376 343 388 413 381 367 b 372 260 374 322 369 289 b 411 210 374 232 385 210 m 717 0 l 444 0 l 476 121 l 474 124 b 264 -15 426 46 353 -15 b 101 374 75 -15 78 231 b 390 749 124 518 203 749 b 546 618 478 749 524 690 l 550 621 l 557 733 l 833 733 m 550 1063 l 765 1063 l 592 829 l 439 829 "},"â":{"ha":790,"x_min":0,"x_max":0,"o":"m 411 210 b 481 276 446 210 467 240 b 504 376 494 314 501 356 b 513 465 507 396 514 432 b 469 525 511 497 501 525 b 400 451 436 525 415 492 b 376 343 388 413 381 367 b 372 260 374 322 369 289 b 411 210 374 232 385 210 m 717 0 l 444 0 l 476 121 l 474 124 b 264 -15 426 46 353 -15 b 101 374 75 -15 78 231 b 390 749 124 518 203 749 b 546 618 478 749 524 690 l 550 621 l 557 733 l 833 733 m 465 840 l 299 840 l 447 1047 l 690 1047 l 760 840 l 599 840 l 554 964 "},"ä":{"ha":790,"x_min":0,"x_max":0,"o":"m 411 210 b 481 276 446 210 467 240 b 504 376 494 314 501 356 b 513 465 507 396 514 432 b 469 525 511 497 501 525 b 400 451 436 525 415 492 b 376 343 388 413 381 367 b 372 260 374 322 369 289 b 411 210 374 232 385 210 m 717 0 l 444 0 l 476 121 l 474 124 b 264 -15 426 46 353 -15 b 101 374 75 -15 78 231 b 390 749 124 518 203 749 b 546 618 478 749 524 690 l 550 621 l 557 733 l 833 733 m 378 832 b 281 947 314 832 271 883 b 411 1058 290 1007 350 1058 b 510 944 474 1058 519 1010 b 378 832 500 882 442 832 m 681 832 b 583 947 617 832 574 883 b 714 1058 593 1007 653 1058 b 813 944 776 1058 822 1010 b 681 832 803 882 744 832 "},"à":{"ha":790,"x_min":0,"x_max":0,"o":"m 411 210 b 481 276 446 210 467 240 b 504 376 494 314 501 356 b 513 465 507 396 514 432 b 469 525 511 497 501 525 b 400 451 436 525 415 492 b 376 343 388 413 381 367 b 372 260 374 322 369 289 b 411 210 374 232 385 210 m 717 0 l 444 0 l 476 121 l 474 124 b 264 -15 426 46 353 -15 b 101 374 75 -15 78 231 b 390 749 124 518 203 749 b 546 618 478 749 524 690 l 550 621 l 557 733 l 833 733 m 488 829 l 385 1063 l 601 1063 l 639 829 "},"å":{"ha":790,"x_min":0,"x_max":0,"o":"m 411 210 b 481 276 446 210 467 240 b 504 376 494 314 501 356 b 513 465 507 396 514 432 b 469 525 511 497 501 525 b 400 451 436 525 415 492 b 376 343 388 413 381 367 b 372 260 374 322 369 289 b 411 210 374 232 385 210 m 717 0 l 444 0 l 476 121 l 474 124 b 264 -15 426 46 353 -15 b 101 374 75 -15 78 231 b 390 749 124 518 203 749 b 546 618 478 749 524 690 l 550 621 l 557 733 l 833 733 m 567 1094 b 697 943 653 1094 710 1029 b 521 792 683 858 604 792 b 393 942 440 792 381 858 b 567 1094 407 1024 483 1094 m 535 879 b 610 944 571 879 604 908 b 557 1007 615 979 592 1007 b 482 944 522 1007 488 979 b 535 879 476 908 499 879 "},"ã":{"ha":790,"x_min":0,"x_max":0,"o":"m 411 210 b 481 276 446 210 467 240 b 504 376 494 314 501 356 b 513 465 507 396 514 432 b 469 525 511 497 501 525 b 400 451 436 525 415 492 b 376 343 388 413 381 367 b 372 260 374 322 369 289 b 411 210 374 232 385 210 m 717 0 l 444 0 l 476 121 l 474 124 b 264 -15 426 46 353 -15 b 101 374 75 -15 78 231 b 390 749 124 518 203 749 b 546 618 478 749 524 690 l 550 621 l 557 733 l 833 733 m 831 1049 l 826 1025 b 633 839 811 928 738 839 b 456 892 547 839 506 892 b 404 836 425 892 408 863 l 261 836 b 456 1044 271 939 340 1044 b 571 1013 501 1044 532 1029 b 636 992 592 1003 613 992 b 690 1049 669 992 683 1021 "},"ç":{"ha":508,"x_min":0,"x_max":0,"o":"m 443 -10 b 368 -15 418 -11 393 -15 b 100 369 157 -15 69 174 b 506 749 132 571 294 749 b 563 746 525 749 543 747 l 525 508 b 382 375 443 504 394 453 b 464 239 372 317 394 239 l 482 239 m 375 -47 b 190 -265 350 -143 292 -232 l 160 -144 b 208 -60 186 -125 204 -89 l 211 -47 "},"é":{"ha":756,"x_min":0,"x_max":0,"o":"m 513 457 b 463 550 518 497 511 550 b 386 457 417 550 390 494 m 743 249 b 378 -15 686 79 542 -15 b 97 353 151 -15 64 138 b 506 749 131 563 281 749 b 735 629 618 749 693 701 b 763 310 790 533 781 425 l 363 310 b 408 197 356 267 351 197 b 476 249 439 197 467 219 m 532 1063 l 747 1063 l 574 829 l 421 829 "},"ê":{"ha":756,"x_min":0,"x_max":0,"o":"m 513 457 b 463 550 518 497 511 550 b 386 457 417 550 390 494 m 743 249 b 378 -15 686 79 542 -15 b 97 353 151 -15 64 138 b 506 749 131 563 281 749 b 735 629 618 749 693 701 b 763 310 790 533 781 425 l 363 310 b 408 197 356 267 351 197 b 476 249 439 197 467 219 m 447 840 l 281 840 l 429 1047 l 672 1047 l 742 840 l 581 840 l 536 964 "},"ë":{"ha":756,"x_min":0,"x_max":0,"o":"m 513 457 b 463 550 518 497 511 550 b 386 457 417 550 390 494 m 743 249 b 378 -15 686 79 542 -15 b 97 353 151 -15 64 138 b 506 749 131 563 281 749 b 735 629 618 749 693 701 b 763 310 790 533 781 425 l 363 310 b 408 197 356 267 351 197 b 476 249 439 197 467 219 m 360 832 b 263 947 296 832 253 883 b 393 1058 272 1007 332 1058 b 492 944 456 1058 501 1010 b 360 832 482 882 424 832 m 663 832 b 565 947 599 832 556 883 b 696 1058 575 1007 635 1058 b 794 944 758 1058 804 1010 b 663 832 785 882 726 832 "},"è":{"ha":756,"x_min":0,"x_max":0,"o":"m 513 457 b 463 550 518 497 511 550 b 386 457 417 550 390 494 m 743 249 b 378 -15 686 79 542 -15 b 97 353 151 -15 64 138 b 506 749 131 563 281 749 b 735 629 618 749 693 701 b 763 310 790 533 781 425 l 363 310 b 408 197 356 267 351 197 b 476 249 439 197 467 219 m 435 829 l 332 1063 l 549 1063 l 586 829 "},"í":{"ha":419,"x_min":0,"x_max":0,"o":"m 74 0 l 190 733 l 463 733 l 346 0 m 350 1063 l 565 1063 l 392 829 l 239 829 "},"î":{"ha":419,"x_min":0,"x_max":0,"o":"m 74 0 l 190 733 l 463 733 l 346 0 m 279 840 l 113 840 l 261 1047 l 504 1047 l 574 840 l 413 840 l 368 964 "},"ï":{"ha":419,"x_min":0,"x_max":0,"o":"m 74 0 l 190 733 l 463 733 l 346 0 m 192 832 b 94 947 128 832 85 883 b 225 1058 104 1007 164 1058 b 324 944 288 1058 333 1010 b 192 832 314 882 256 832 m 494 832 b 397 947 431 832 388 883 b 528 1058 407 1007 467 1058 b 626 944 590 1058 636 1010 b 494 832 617 882 558 832 "},"ì":{"ha":419,"x_min":0,"x_max":0,"o":"m 74 0 l 190 733 l 463 733 l 346 0 m 281 829 l 178 1063 l 394 1063 l 432 829 "},"ñ":{"ha":799,"x_min":0,"x_max":0,"o":"m 433 597 l 436 594 b 647 749 475 674 557 749 b 801 483 804 749 822 615 l 725 0 l 453 0 l 511 371 b 478 478 521 433 524 478 b 401 353 425 478 414 428 l 346 0 l 74 0 l 190 733 l 463 733 m 835 1049 l 831 1025 b 638 839 815 928 742 839 b 460 892 551 839 510 892 b 408 836 429 892 413 863 l 265 836 b 460 1044 275 939 344 1044 b 575 1013 506 1044 536 1029 b 640 992 596 1003 617 992 b 694 1049 674 992 688 1021 "},"ó":{"ha":767,"x_min":0,"x_max":0,"o":"m 501 749 b 783 367 736 749 815 572 b 381 -15 750 161 615 -15 b 100 367 146 -15 67 161 b 501 749 132 572 267 749 m 469 544 b 367 367 404 544 378 442 b 414 189 354 292 349 189 b 517 367 479 189 504 292 b 469 544 528 442 535 544 m 531 1063 l 746 1063 l 572 829 l 419 829 "},"ô":{"ha":767,"x_min":0,"x_max":0,"o":"m 501 749 b 783 367 736 749 815 572 b 381 -15 750 161 615 -15 b 100 367 146 -15 67 161 b 501 749 132 572 267 749 m 469 544 b 367 367 404 544 378 442 b 414 189 354 292 349 189 b 517 367 479 189 504 292 b 469 544 528 442 535 544 m 453 840 l 286 840 l 435 1047 l 678 1047 l 747 840 l 586 840 l 542 964 "},"ö":{"ha":767,"x_min":0,"x_max":0,"o":"m 501 749 b 783 367 736 749 815 572 b 381 -15 750 161 615 -15 b 100 367 146 -15 67 161 b 501 749 132 572 267 749 m 469 544 b 367 367 404 544 378 442 b 414 189 354 292 349 189 b 517 367 479 189 504 292 b 469 544 528 442 535 544 m 365 832 b 268 947 301 832 258 883 b 399 1058 278 1007 338 1058 b 497 944 461 1058 507 1010 b 365 832 488 882 429 832 m 668 832 b 571 947 604 832 561 883 b 701 1058 581 1007 640 1058 b 800 944 764 1058 810 1010 b 668 832 790 882 732 832 "},"ò":{"ha":767,"x_min":0,"x_max":0,"o":"m 501 749 b 783 367 736 749 815 572 b 381 -15 750 161 615 -15 b 100 367 146 -15 67 161 b 501 749 132 572 267 749 m 469 544 b 367 367 404 544 378 442 b 414 189 354 292 349 189 b 517 367 479 189 504 292 b 469 544 528 442 535 544 m 447 829 l 344 1063 l 561 1063 l 599 829 "},"õ":{"ha":767,"x_min":0,"x_max":0,"o":"m 501 749 b 783 367 736 749 815 572 b 381 -15 750 161 615 -15 b 100 367 146 -15 67 161 b 501 749 132 572 267 749 m 469 544 b 367 367 404 544 378 442 b 414 189 354 292 349 189 b 517 367 479 189 504 292 b 469 544 528 442 535 544 m 818 1049 l 814 1025 b 621 839 799 928 725 839 b 443 892 535 839 493 892 b 392 836 413 892 396 863 l 249 836 b 443 1044 258 939 328 1044 b 558 1013 489 1044 519 1029 b 624 992 579 1003 600 992 b 678 1049 657 992 671 1021 "},"š":{"ha":640,"x_min":0,"x_max":0,"o":"m 183 264 b 307 188 210 229 257 188 b 367 225 331 188 363 199 b 304 283 371 251 349 267 b 147 501 204 321 128 376 b 481 749 171 653 310 749 b 696 689 554 749 638 725 l 571 490 b 467 556 543 519 513 556 b 421 519 447 556 425 543 b 492 451 415 482 465 463 b 638 242 585 414 656 361 b 303 -15 611 76 454 -15 b 51 61 203 -15 131 14 m 717 1047 l 583 840 l 340 840 l 256 1047 l 422 1047 l 472 924 l 556 1047 "},"ú":{"ha":785,"x_min":0,"x_max":0,"o":"m 456 733 l 393 339 b 425 213 379 251 378 213 b 500 339 474 213 486 250 l 563 733 l 835 733 l 765 301 b 389 -15 732 85 589 -15 b 114 301 178 -15 83 101 l 183 733 m 533 1063 l 749 1063 l 575 829 l 422 829 "},"û":{"ha":785,"x_min":0,"x_max":0,"o":"m 456 733 l 393 339 b 425 213 379 251 378 213 b 500 339 474 213 486 250 l 563 733 l 835 733 l 765 301 b 389 -15 732 85 589 -15 b 114 301 178 -15 83 101 l 183 733 m 463 840 l 296 840 l 444 1047 l 688 1047 l 757 840 l 596 840 l 551 964 "},"ü":{"ha":785,"x_min":0,"x_max":0,"o":"m 456 733 l 393 339 b 425 213 379 251 378 213 b 500 339 474 213 486 250 l 563 733 l 835 733 l 765 301 b 389 -15 732 85 589 -15 b 114 301 178 -15 83 101 l 183 733 m 375 832 b 278 947 311 832 268 883 b 408 1058 288 1007 347 1058 b 507 944 471 1058 517 1010 b 375 832 497 882 439 832 m 678 832 b 581 947 614 832 571 883 b 711 1058 590 1007 650 1058 b 810 944 774 1058 819 1010 b 678 832 800 882 742 832 "},"ù":{"ha":785,"x_min":0,"x_max":0,"o":"m 456 733 l 393 339 b 425 213 379 251 378 213 b 500 339 474 213 486 250 l 563 733 l 835 733 l 765 301 b 389 -15 732 85 589 -15 b 114 301 178 -15 83 101 l 183 733 m 464 829 l 361 1063 l 578 1063 l 615 829 "},"ý":{"ha":758,"x_min":0,"x_max":0,"o":"m 63 -328 l 243 31 l 138 733 l 411 733 l 424 481 b 429 317 426 426 426 371 l 432 317 b 485 481 450 371 464 426 l 582 733 l 854 733 l 344 -328 m 540 1063 l 756 1063 l 582 829 l 429 829 "},"ÿ":{"ha":758,"x_min":0,"x_max":0,"o":"m 63 -328 l 243 31 l 138 733 l 411 733 l 424 481 b 429 317 426 426 426 371 l 432 317 b 485 481 450 371 464 426 l 582 733 l 854 733 l 344 -328 m 361 832 b 264 947 297 832 254 883 b 394 1058 274 1007 333 1058 b 493 944 457 1058 503 1010 b 361 832 483 882 425 832 m 664 832 b 567 947 600 832 557 883 b 697 1058 576 1007 636 1058 b 796 944 760 1058 806 1010 b 664 832 786 882 728 832 "},"ž":{"ha":693,"x_min":0,"x_max":0,"o":"m 32 0 l 363 519 b 257 515 328 518 292 515 l 153 515 l 188 733 l 779 733 l 450 219 b 540 222 481 221 510 222 l 653 222 l 618 0 m 743 1047 l 610 840 l 367 840 l 282 1047 l 449 1047 l 499 924 l 582 1047 "},"∆":{"ha":992,"x_min":0,"x_max":0,"o":"m 56 136 l 521 1063 l 819 1063 l 976 140 l 954 0 l 33 0 m 719 200 l 650 539 b 619 800 644 619 625 738 l 615 800 b 511 560 596 749 544 644 l 324 200 "},"Ω":{"ha":1044,"x_min":0,"x_max":0,"o":"m 263 206 b 157 592 196 283 129 415 b 693 1060 196 832 408 1060 b 1072 604 1000 1060 1103 800 b 839 206 1044 429 940 289 l 839 200 l 1029 200 l 997 0 l 575 0 l 599 149 b 724 279 642 174 686 215 b 811 549 760 343 792 431 b 658 853 839 725 788 853 b 401 538 535 853 432 726 b 490 149 368 328 415 194 l 467 0 l 43 0 l 75 200 l 263 200 "},"μ":{"ha":799,"x_min":0,"x_max":0,"o":"m 842 733 l 765 250 b 526 -15 743 118 683 -15 b 364 139 436 -15 378 60 l 361 136 l 350 25 l 294 -328 l 22 -328 l 190 733 l 463 733 l 406 381 b 443 256 396 319 389 256 b 510 363 490 256 501 307 l 569 733 "},"π":{"ha":935,"x_min":0,"x_max":0,"o":"m 901 579 l 846 224 b 826 0 829 125 825 51 l 586 0 b 593 217 571 38 578 124 l 650 579 l 494 579 b 317 0 467 442 394 165 l 75 0 b 249 579 150 183 228 443 b 115 568 194 579 151 576 l 118 733 b 394 790 160 767 254 790 l 1046 790 l 994 579 "},"€":{"ha":839,"x_min":0,"x_max":0,"o":"m 893 796 b 726 858 869 829 817 858 b 511 689 611 858 546 799 l 828 689 l 760 556 l 476 556 b 469 518 474 546 472 531 b 464 474 467 503 464 486 l 718 474 l 650 340 l 460 340 b 619 186 461 236 511 186 b 806 243 700 186 768 213 l 771 31 b 540 -17 738 10 660 -17 b 194 340 304 -17 193 100 l 76 340 l 143 474 l 201 474 b 207 517 203 486 204 500 b 214 556 210 531 213 543 l 110 556 l 178 689 l 247 689 b 711 1064 321 917 458 1064 b 926 1011 824 1064 900 1033 "},"ℓ":{"ha":803,"x_min":0,"x_max":0,"o":"m 814 210 b 442 -14 697 36 561 -14 b 192 208 257 -14 193 86 b 192 222 190 213 192 218 b 113 169 167 206 140 186 l 75 297 b 218 400 126 335 172 364 l 274 750 b 632 1147 314 1013 461 1147 b 817 865 792 1147 840 1021 b 453 369 790 697 657 539 l 443 297 b 533 185 435 231 469 185 b 735 314 604 185 679 247 m 488 590 b 665 878 586 689 654 803 b 619 974 675 940 665 974 b 514 751 585 974 542 929 "},"℮":{"ha":1475,"x_min":0,"x_max":0,"o":"m 449 508 b 440 501 444 508 440 507 l 440 207 b 454 174 440 194 446 183 b 822 14 549 76 678 14 b 1210 193 978 14 1115 83 l 1297 193 b 821 -17 1189 67 1015 -17 b 219 522 489 -17 219 225 b 821 1065 219 822 489 1065 b 1424 522 1154 1065 1424 822 l 1424 508 m 1203 843 b 1188 879 1203 857 1197 869 b 822 1032 1093 972 965 1032 b 456 874 679 1032 550 969 b 440 838 446 864 440 851 l 440 547 b 449 538 440 543 444 538 l 1196 538 b 1203 547 1200 538 1203 543 "},"∂":{"ha":892,"x_min":0,"x_max":0,"o":"m 265 1097 b 572 1185 314 1129 418 1185 b 919 613 810 1185 978 986 b 378 -11 858 224 650 -11 b 106 350 154 -11 81 196 b 496 749 144 594 310 749 b 681 647 606 749 664 681 l 682 647 l 688 686 b 506 981 708 818 657 981 b 300 910 414 981 343 940 m 436 196 b 631 454 525 196 601 350 b 518 550 628 488 593 550 b 350 339 433 550 367 444 b 435 196 338 263 369 196 "},"∏":{"ha":1265,"x_min":0,"x_max":0,"o":"m 1089 819 l 1089 -144 l 843 -144 l 843 819 l 590 819 l 590 -144 l 344 -144 l 344 819 l 200 819 l 200 1044 l 1232 1044 l 1232 819 "},"∑":{"ha":1004,"x_min":0,"x_max":0,"o":"m 200 -144 l 200 11 l 531 453 l 211 871 l 211 1044 l 956 1044 l 956 835 l 540 835 l 540 831 l 808 494 l 503 89 l 503 83 l 982 83 l 982 -144 "},"∙":{"ha":419,"x_min":0,"x_max":0,"o":"m 240 196 b 108 357 151 196 94 268 b 286 514 121 442 204 514 b 425 353 376 514 440 446 b 240 196 411 265 328 196 "},"√":{"ha":1078,"x_min":0,"x_max":0,"o":"m 763 -199 l 571 -199 l 361 426 l 251 382 l 214 515 l 507 635 l 635 221 b 668 75 647 165 660 113 l 669 74 b 696 236 676 110 683 172 l 933 1261 l 1101 1261 "},"∞":{"ha":1271,"x_min":0,"x_max":0,"o":"m 1204 429 b 956 154 1204 254 1082 154 b 693 318 875 154 789 179 b 422 154 618 219 542 154 b 178 421 296 154 178 258 b 436 690 178 582 290 690 b 699 535 546 690 624 638 b 963 690 750 594 824 692 b 1204 431 1094 690 1204 589 m 440 283 b 624 414 515 283 569 344 b 435 565 565 497 525 565 b 307 419 357 565 308 507 b 438 283 307 344 365 283 m 949 565 b 763 426 865 565 807 481 b 958 283 846 313 888 283 b 1074 419 1033 283 1074 363 b 950 565 1074 499 1028 565 "},"∫":{"ha":801,"x_min":0,"x_max":0,"o":"m 743 1118 b 690 1129 728 1125 713 1129 b 617 1089 660 1129 635 1117 b 583 850 589 1051 583 964 b 607 157 583 600 607 443 b 560 -140 607 29 592 -75 b 335 -271 513 -237 419 -271 b 206 -247 281 -271 232 -260 l 233 -74 b 296 -86 249 -79 268 -86 b 358 -60 319 -86 343 -81 b 392 154 382 -26 392 35 b 368 874 392 446 368 606 b 464 1226 368 1056 396 1153 b 664 1303 511 1278 590 1303 b 764 1288 707 1303 744 1294 "},"≈":{"ha":917,"x_min":0,"x_max":0,"o":"m 867 621 b 657 457 815 522 736 457 b 496 514 597 457 560 474 b 375 564 453 542 422 564 b 242 460 311 564 278 510 l 158 538 b 383 699 201 625 288 699 b 535 649 456 699 499 671 b 656 593 589 614 617 593 b 785 699 711 593 746 639 m 867 324 b 656 161 817 228 739 161 b 496 218 597 161 557 181 b 375 269 451 247 421 269 b 242 163 311 269 279 215 l 158 242 b 383 403 201 329 288 403 b 535 353 456 403 499 374 b 654 297 579 326 613 297 b 785 403 711 297 743 342 "},"≠":{"ha":935,"x_min":0,"x_max":0,"o":"m 688 656 l 868 656 l 868 518 l 638 518 l 558 328 l 868 328 l 868 192 l 507 192 l 438 26 l 331 68 l 383 192 l 199 192 l 199 328 l 433 328 l 513 518 l 199 518 l 199 656 l 563 656 l 631 817 l 739 776 "},"≤":{"ha":958,"x_min":0,"x_max":0,"o":"m 228 483 l 228 633 l 888 963 l 888 804 l 360 560 l 360 557 l 888 311 l 888 153 m 224 -39 l 224 101 l 894 101 l 894 -39 "},"≥":{"ha":958,"x_min":0,"x_max":0,"o":"m 892 632 l 892 483 l 232 153 l 232 311 l 760 557 l 760 561 l 232 804 l 232 963 m 225 -39 l 225 101 l 890 101 l 890 -39 "},"◊":{"ha":1076,"x_min":0,"x_max":0,"o":"m 717 -78 l 519 -78 l 239 521 l 531 1119 l 728 1119 l 1010 521 m 656 825 b 629 922 646 854 633 893 l 624 922 b 594 825 617 892 606 856 l 454 526 l 593 208 b 618 118 603 179 614 139 l 625 118 b 651 206 631 142 644 192 l 794 515 "}," ":{"ha":419,"x_min":0,"x_max":0,"o":""},"­":{"ha":446,"x_min":0,"x_max":0,"o":"m 106 332 l 142 557 l 482 557 l 446 332 "},"ˉ":{"ha":528,"x_min":0,"x_max":0,"o":"m 157 1017 l 693 1017 l 669 869 l 133 869 "},"Ω":{"ha":1044,"x_min":0,"x_max":0,"o":"m 263 206 b 157 592 196 283 129 415 b 693 1060 196 832 408 1060 b 1072 604 1000 1060 1103 800 b 839 206 1044 429 940 289 l 839 200 l 1029 200 l 997 0 l 575 0 l 599 149 b 724 279 642 174 686 215 b 811 549 760 343 792 431 b 658 853 839 725 788 853 b 401 538 535 853 432 726 b 490 149 368 328 415 194 l 467 0 l 43 0 l 75 200 l 263 200 "},"∕":{"ha":325,"x_min":0,"x_max":0,"o":"m -258 42 l 647 1090 l 749 1011 l -162 -36 "}}}
